<svg width="50" height="50" viewBox="0 0 50 50" fill="none" xmlns="http://www.w3.org/2000/svg">

    <!--    logo-->
    <g id="logoSVG">
        <path id="Path 0" d="m0 1500v1500h3000v-3000h-3000z"/>
        <path id="Path 1"
              d="m1298 1023.5q0 1.5-3 1.5-3 0-3 1.5c0 0.8-0.7 1.5-1.5 1.5-0.8 0-1.5 0.7-1.5 1.5 0 0.8-0.7 1.5-1.5 1.5q-1.5 0-1.5 3 0 3-1.5 3c-0.8 0-1.5 0.7-1.5 1.5 0 0.8-0.7 1.5-1.5 1.5q-1.5 0-1.5 3 0 3-1.5 3-1.5 0-1.5 3 0 3-1.5 3-1.5 0-1.5 3 0 3-1.5 3c-0.8 0-1.5 0.7-1.5 1.5 0 0.8-0.5 1.5-1 1.5-0.5 0-1 1.1-1 2.5 0 1.6-0.6 2.5-1.5 2.5q-1.5 0-1.5 3 0 3-1.5 3-1.5 0-1.5 3 0 3-1.5 3c-0.8 0-1.5 0.7-1.5 1.5 0 0.8-0.7 1.5-1.5 1.5q-1.5 0-1.5 3 0 3-1.5 3-1.5 0-1.5 3 0 3-1.5 3c-0.8 0-1.5 0.7-1.5 1.5 0 0.8-0.7 1.5-1.5 1.5q-1.5 0-1.5 3 0 3-1.5 3c-0.9 0-1.5 0.9-1.5 2.3-0.1 1.2-1.4 3.3-3.1 4.7-1.7 1.4-2.9 3.5-2.9 4.8 0 1.3-0.6 2.2-1.5 2.2q-1.5 0-1.5 3 0 3-1.5 3-1.5 0-1.5 3 0 3-1.5 3c-0.8 0-1.5 0.7-1.5 1.5 0 0.8-0.5 1.5-1 1.5-0.5 0-1 1.1-1 2.5 0 1.4-0.7 2.7-1.5 3-0.8 0.3-1.5 1.5-1.5 2.8 0 1.2-1.2 3.3-2.9 4.7-1.7 1.4-3 3.5-3.1 4.8 0 1.3-0.6 2.2-1.5 2.2q-1.5 0-1.5 3 0 3-1.5 3-1.5 0-1.5 3 0 3-1.5 3c-0.8 0-1.5 0.7-1.5 1.5 0 0.8-0.7 1.5-1.5 1.5q-1.5 0-1.5 3 0 3-1.5 3-1.5 0-1.5 3 0 3-1.5 3c-0.8 0-1.5 0.7-1.5 1.5 0 0.8-0.7 1.5-1.5 1.5q-1.5 0-1.5 3 0 3-1.5 3c-0.9 0-1.5 0.9-1.5 2.5 0 1.4-0.7 2.7-1.5 3-0.8 0.3-1.5 1.4-1.5 2.5 0 1.1-1.1 3-2.5 4.3-1.4 1.3-2.4 3.3-2.5 5 0 1.7-0.5 2.7-1.5 2.7q-1.5 0-1.5 3 0 3-1.5 3c-0.9 0-1.5 0.9-1.5 2.3 0 1.2-1.2 3.3-2.9 4.7-1.7 1.4-3 3.5-3.1 4.8 0 1.2-0.7 2.4-1.5 2.7-0.8 0.3-1.5 1.6-1.5 3 0 1.6-0.6 2.5-1.5 2.5-0.8 0-1.5 0.7-1.5 1.5 0 0.8-0.7 1.5-1.5 1.5q-1.5 0-1.5 3 0 3-1.5 3-1.5 0-1.5 3 0 3-1.5 3-1.5 0-1.5 3 0 3-1.5 3c-0.8 0-1.5 0.7-1.5 1.5 0 0.8-0.7 1.5-1.5 1.5q-1.5 0-1.5 3 0 3-1.5 3-1.5 0-1.5 3 0 3-1.5 3c-0.9 0-1.5 0.9-1.5 2.5 0 1.4-0.5 2.5-1 2.5-0.5 0-1 0.7-1 1.5 0 0.8-0.7 1.5-1.5 1.5q-1.5 0-1.5 3 0 3-1.5 3-1.5 0-1.5 3 0 3-1.5 3c-0.8 0-1.5 0.7-1.5 1.5 0 0.8-0.7 1.5-1.5 1.5q-1.5 0-1.5 3 0 3-1.5 3-1.5 0-1.5 3 0 3-1.5 3c-0.8 0-1.5 0.7-1.5 1.5 0 0.8-0.7 1.5-1.5 1.5q-1.5 0-1.5 3 0 3-1.5 3c-0.9 0-1.5 0.9-1.5 2.5 0 1.6-0.6 2.5-1.5 2.5q-1.5 0-1.5 3 0 3-1.5 3c-0.8 0-1.5 0.7-1.5 1.5 0 0.8-0.7 1.5-1.5 1.5q-1.5 0-1.5 3 0 3-1.5 3-1.5 0-1.5 3 0 3-1.5 3c-0.8 0-1.5 0.7-1.5 1.5 0 0.8-0.7 1.5-1.5 1.5q-1.5 0-1.5 3c0 1.7-0.5 3-1 3-0.5 0-1 1.1-1 2.5 0 1.4-0.7 2.7-1.5 3-0.8 0.3-1.5 1.6-1.5 3 0 1.6-0.6 2.5-1.5 2.5-0.8 0-1.5 0.7-1.5 1.5 0 0.8-0.7 1.5-1.5 1.5q-1.5 0-1.5 3 0 3-1.5 3-1.5 0-1.5 3 0 3-1.5 3c-0.8 0-1.5 0.7-1.5 1.5 0 0.8-0.7 1.5-1.5 1.5q-1.5 0-1.5 3 0 3-1.5 3-1.5 0-1.5 3 0 3-1.5 3-1.5 0-1.5 3c0 1.7-0.5 3-1 3-0.5 0-1.9 0.8-3 1.8-1.1 0.9-2 2.7-2 4 0 1.2-0.7 2.4-1.5 2.7-0.8 0.3-1.5 1.6-1.5 3 0 1.4-0.7 2.7-1.5 3-0.8 0.3-1.5 1.6-1.5 3 0 1.6-0.6 2.5-1.5 2.5-0.8 0-1.5 0.7-1.5 1.5 0 0.8-0.5 1.5-1 1.5-0.5 0-1 1.1-1 2.5 0 1.4-0.7 2.7-1.5 3-0.8 0.3-1.5 1.5-1.5 2.8 0 1.2-1.2 3.3-2.9 4.7-1.7 1.4-3 3.5-3.1 4.8 0 1.3-0.6 2.2-1.5 2.2q-1.5 0-1.5 3 0 3-1.5 3-1.5 0-1.5 3 0 3-1.5 3c-0.8 0-1.5 0.7-1.5 1.5 0 0.8-0.7 1.5-1.5 1.5q-1.5 0-1.5 3 0 3-1.5 3-1.5 0-1.5 3 0 3-1.5 3c-0.8 0-1.5 0.7-1.5 1.5 0 0.8-0.7 1.5-1.5 1.5q-1.5 0-1.5 3 0 3-1.5 3c-0.9 0-1.5 0.9-1.5 2.3-0.1 1.2-1.4 3.3-3.1 4.7-1.7 1.4-2.9 3.5-2.9 4.8 0 1.2-0.5 2.2-1 2.2-0.5 0-1 1.3-1 3q0 3-1.5 3c-0.8 0-1.5 0.7-1.5 1.5 0 0.8-0.7 1.5-1.5 1.5q-1.5 0-1.5 3 0 3-1.5 3-1.5 0-1.5 3 0 3-1.5 3-1.5 0-1.5 3 0 3-1.5 3c-0.8 0-1.5 0.7-1.5 1.5 0 0.8-0.7 1.5-1.5 1.5-0.9 0-1.5 0.9-1.5 2.5 0 1.6-0.6 2.5-1.5 2.5q-1.5 0-1.5 3 0 3-1.5 3c-0.8 0-1.5 0.7-1.5 1.5 0 0.8-0.7 1.5-1.5 1.5q-1.5 0-1.5 3 0 3-1.5 3-1.5 0-1.5 3 0 3-1.5 3-1.5 0-1.5 3 0 3-1.5 3c-0.8 0-1.5 0.7-1.5 1.5 0 0.8-0.7 1.5-1.5 1.5q-1.5 0-1.5 3c0 1.7-0.5 3-1 3-0.5 0-1 1.1-1 2.5 0 1.6-0.6 2.5-1.5 2.5-0.8 0-1.5 0.7-1.5 1.5 0 0.8-0.7 1.5-1.5 1.5q-1.5 0-1.5 3 0 3-1.5 3-1.5 0-1.5 3 0 3-1.5 3-1.5 0-1.5 3 0 3-1.5 3c-0.8 0-1.5 0.7-1.5 1.5 0 0.8-0.7 1.5-1.5 1.5q-1.5 0-1.5 3 0 3-1.5 3-1.5 0-1.5 3 0 3-1.5 3c-0.8 0-1.5 0.7-1.5 1.5 0 0.8-0.7 1.5-1.5 1.5-0.9 0-1.5 0.9-1.5 2.5 0 1.4-0.7 2.7-1.5 3-0.8 0.3-1.5 1.6-1.5 3 0 1.6-0.6 2.5-1.5 2.5q-1.5 0-1.5 3 0 3-1.5 3c-0.8 0-1.5 0.7-1.5 1.5 0 0.8-0.7 1.5-1.5 1.5-0.9 0-1.5 0.9-1.5 2.5 0 1.4-0.7 3.2-1.5 4-0.8 0.8-1.3 2.2-1 3 0.3 0.8-0.2 1.7-1 2-0.8 0.3-1.5 1.5-1.5 2.8 0 1.2-1.2 3.3-2.9 4.7-1.7 1.4-3 3.5-3.1 4.8 0 1.3-0.6 2.2-1.5 2.2q-1.5 0-1.5 3 0 3-1.5 3c-0.8 0-1.5 0.7-1.5 1.5 0 0.8-0.7 1.5-1.5 1.5q-1.5 0-1.5 3 0 3-1.5 3-1.5 0-1.5 3 0 3-1.5 3c-0.8 0-1.5 0.7-1.5 1.5 0 0.8-0.7 1.5-1.5 1.5q-1.5 0-1.5 3 0 3-1.5 3-1.5 0-1.5 3 0 3-1.5 3c-0.8 0-1.5 0.7-1.5 1.5 0 0.8-0.7 1.5-1.5 1.5-0.9 0-1.5 0.9-1.5 2.5 0 1.4-0.7 2.7-1.5 3-0.8 0.3-1.5 1.4-1.5 2.5 0 1.1-1.1 3-2.5 4.3-1.4 1.3-2.4 3.3-2.5 5 0 1.7-0.5 2.7-1.5 2.7q-1.5 0-1.5 3 0 3-1.5 3c-0.8 0-1.5 0.7-1.5 1.5 0 0.8-0.7 1.5-1.5 1.5-0.8 0-1.5 0.7-1.5 1.5 0 0.9 0.9 1.5 2.3 1.5 1.2-0.1 3.7-1.6 5.5-3.5 1.7-1.9 3.2-4 3.2-4.5 0-0.5 0.7-1 1.5-1 0.8 0 1.5-0.7 1.5-1.5 0-0.8 0.7-1.5 1.5-1.5 0.8 0 1.5-0.7 1.5-1.5 0-0.8 0.7-1.5 1.5-1.5 0.8 0 1.5-0.7 1.5-1.5 0-0.8 0.7-1.5 1.5-1.5 0.8 0 1.5-0.7 1.5-1.5 0-0.8 0.7-1.5 1.5-1.5 0.8 0 1.5-0.7 1.5-1.5 0-0.8 0.7-1.5 1.5-1.5 0.8 0 1.5-0.7 1.5-1.5 0-0.8 0.7-1.5 1.5-1.5 0.8 0 1.5-0.7 1.5-1.5 0-0.8 0.7-1.5 1.5-1.5 0.8 0 1.5-0.7 1.5-1.5 0-0.8 0.5-1.5 1.1-1.5 0.6 0 4.4-3.4 8.5-7.5 4.1-4.1 7.4-8 7.4-8.5 0-0.5 0.7-1 1.5-1 0.8 0 1.5-0.7 1.5-1.5 0-0.8 0.7-1.5 1.5-1.5 0.8 0 1.5-0.7 1.5-1.5 0-0.8 0.7-1.5 1.5-1.5 0.8 0 1.5-0.7 1.5-1.5 0-0.8 0.7-1.5 1.5-1.5 0.8 0 1.5-0.7 1.5-1.5 0-0.8 0.7-1.5 1.5-1.5 0.8 0 1.5-0.7 1.5-1.5 0-0.8 0.7-1.5 1.5-1.5 0.8 0 1.5-0.7 1.5-1.5 0-0.8 0.7-1.5 1.5-1.5 0.8 0 1.5-0.7 1.5-1.5 0-0.8 0.7-1.5 1.5-1.5 0.8 0 1.5-0.7 1.5-1.5 0-0.8 0.5-1.5 1-1.5 0.5 0 2.6-1.5 4.5-3.3 1.9-1.7 3.4-4.2 3.5-5.5 0-1.3 0.6-2.2 1.5-2.2 0.8 0 1.5-0.5 1.5-1 0-0.5 1.8-2.7 4-4.8 2.1-2 3.9-4.3 4-5 0-0.6 0.7-1.2 1.5-1.2 0.8 0 1.5-0.7 1.5-1.5 0-0.8 0.7-1.5 1.5-1.5 0.8 0 1.5-0.7 1.5-1.5 0-0.8 0.7-1.5 1.5-1.5 0.8 0 1.5-0.7 1.5-1.5 0-0.8 0.7-1.5 1.5-1.5 0.8 0 1.5-0.7 1.5-1.5 0-0.8 0.7-1.5 1.5-1.5 0.8 0 1.5-0.7 1.5-1.5 0-0.8 0.7-1.5 1.5-1.5 0.8 0 1.5-0.7 1.5-1.5 0-0.8 0.5-1.5 1-1.5 0.5 0 2.6-1.5 4.5-3.3 1.9-1.7 3.4-4.2 3.5-5.5 0-1.8 0.6-2.2 3-2.2 2.7 0 3-0.3 3-3q0-3 1.5-3c0.8 0 1.5-0.7 1.5-1.5 0-0.8 0.7-1.5 1.5-1.5 0.8 0 1.5-0.6 1.5-1.3 0.1-0.6 1.2-2.2 2.5-3.5 1.4-1.2 2.5-2.7 2.5-3.2 0-0.5 0.7-1 1.5-1 0.8 0 1.5-0.7 1.5-1.5 0-0.8 0.7-1.5 1.5-1.5 0.8 0 1.5-0.7 1.5-1.5 0-0.8 0.7-1.5 1.5-1.5 0.8 0 1.5-0.7 1.5-1.5 0-0.8 0.5-1.5 1-1.5 0.5 0 2-1.1 3.2-2.5 1.3-1.3 2.9-2.4 3.5-2.5 0.7 0 1.3-0.7 1.3-1.5 0-0.8 0.7-1.5 1.5-1.5 0.8 0 1.5-0.7 1.5-1.5 0-0.8 0.7-1.5 1.5-1.5q1.5 0 1.5-3 0-3 1.5-3c0.8 0 1.5-0.7 1.5-1.5 0-0.8 0.7-1.5 1.5-1.5 0.8 0 1.5-0.7 1.5-1.5 0-0.8 0.7-1.5 1.5-1.5 0.8 0 1.5-0.7 1.5-1.5 0-0.8 0.7-1.5 1.5-1.5 0.8 0 1.5-0.5 1.5-1 0-0.5 3.8-4.8 8.5-9.5 5-5 8.5-9.3 8.5-10.5 0-1.1 0.7-2 1.5-2 0.8 0 1.5-0.7 1.5-1.5 0-0.8 0.7-1.5 1.5-1.5 0.8 0 1.5-0.7 1.5-1.5 0-0.8 0.7-1.5 1.5-1.5 0.8 0 1.5-0.7 1.5-1.5 0-0.8 0.7-1.5 1.5-1.5 0.8 0 1.5-0.7 1.5-1.5 0-0.8 0.7-1.5 1.5-1.5 0.8 0 1.5-0.7 1.5-1.5 0-0.8 0.7-1.5 1.5-1.5 0.8 0 1.5-0.7 1.5-1.5 0-0.8 0.7-1.5 1.5-1.5 0.8 0 1.5-0.7 1.5-1.5 0-0.8 0.7-1.5 1.5-1.5 0.9 0 1.5-0.9 1.5-2.5 0-1.4 1.4-4 3.2-6 1.8-1.9 4.3-3.4 5.5-3.5 1.3 0 2.5-0.7 2.8-1.5 0.3-0.8 1.6-1.5 3-1.5 1.4 0 2.7-0.7 3-1.5 0.4-1.1 1.9-1.5 5.5-1.5 3.6 0 5.1 0.4 5.5 1.5 0.3 0.8 1.5 1.5 2.7 1.5 1.3 0 3.4 1.2 4.8 2.9 1.4 1.7 3.4 3 4.5 3 1.1 0.1 2.8 1 3.7 2.1 1 1.1 1.8 2.5 1.8 3 0 0.5 0.7 1 1.5 1 0.8 0 1.5 0.7 1.5 1.5 0 0.8 0.7 1.5 1.5 1.5 0.8 0 1.5 0.7 1.5 1.5 0 0.8 0.7 1.5 1.5 1.5 0.8 0 1.5 0.7 1.5 1.5q0 1.5 3 1.5 3 0 3 1.5c0 0.8 0.7 1.5 1.5 1.5 0.8 0 1.5 0.7 1.5 1.5 0 0.8 0.7 1.5 1.5 1.5 0.8 0 1.5 0.7 1.5 1.5 0 0.8 0.7 1.5 1.5 1.5 0.8 0 1.5 0.7 1.5 1.5 0 0.8 0.7 1.5 1.5 1.5 0.8 0 1.5 0.7 1.5 1.5 0 0.8 0.7 1.5 1.5 1.5 0.8 0 1.5 0.7 1.5 1.5 0 0.8 0.5 1.5 1 1.5 0.5 0 3 2 5.5 4.5 2.5 2.5 4.5 5 4.5 5.5 0 0.5 1.3 1 3 1q3 0 3 1.5c0 0.8 0.7 1.5 1.5 1.5 0.8 0 1.5 0.7 1.5 1.5 0 0.8 0.7 1.5 1.5 1.5 0.8 0 1.5 0.7 1.5 1.5 0 0.8 0.7 1.5 1.5 1.5 0.8 0 1.5 0.7 1.5 1.5 0 0.8 0.7 1.5 1.5 1.5 0.8 0 1.5 0.7 1.5 1.5 0 0.8 0.7 1.5 1.5 1.5 0.8 0 1.5 0.7 1.5 1.5 0 1.2 1.4 1.5 6.7 1.5 6.4-0.1 7-0.3 10-3.5 1.8-1.9 3.3-4 3.3-4.5 0-0.5 0.7-1 1.5-1 0.8 0 1.5-0.7 1.5-1.5 0-0.8 0.7-1.5 1.5-1.5q1.5 0 1.5-3 0-3 1.5-3c0.8 0 1.5-0.7 1.5-1.5 0-0.8 0.7-1.5 1.5-1.5 0.9 0 1.5-0.9 1.5-2.3 0-1.2 0.9-3 2-4 1.1-0.9 2.5-1.7 3-1.7 0.5 0 1-0.7 1-1.5 0-0.8 0.7-1.5 1.5-1.5 0.8 0 1.5-0.7 1.5-1.5 0-0.8 0.7-1.5 1.5-1.5q1.5 0 1.5-3 0-3 1.5-3c0.8 0 1.5-0.7 1.5-1.5 0-0.8 0.7-1.5 1.5-1.5 0.8 0 1.5-0.7 1.5-1.5 0-0.8 0.7-1.5 1.5-1.5q1.5 0 1.5-3 0-3 1.5-3c0.8 0 1.5-0.7 1.5-1.5 0-0.8 0.7-1.5 1.5-1.5 0.9 0 1.5-0.9 1.5-2.5 0-1.7 1.8-4.3 5.5-8 3-3 5.5-6.4 5.5-7.5 0-1.1 0.7-2 1.5-2 0.8 0 1.5-0.7 1.5-1.5 0-0.8 0.7-1.5 1.5-1.5q1.5 0 1.5-3 0-3 1.5-3c0.8 0 1.5-0.7 1.5-1.5 0-0.8 0.7-1.5 1.5-1.5q1.5 0 1.5-3 0-3 1.5-3c0.8 0 1.5-0.7 1.5-1.5 0-0.8 0.7-1.5 1.5-1.5 0.8 0 1.5-0.7 1.5-1.5 0-0.8 0.7-1.5 1.5-1.5q1.5 0 1.5-3 0-3 1.5-3c0.8 0 1.5-0.7 1.5-1.5q0-1.5 3-1.5 3 0 3-1.5c0-1.2 1.6-1.5 8.5-1.5 6.9 0 8.5 0.3 8.5 1.5 0 0.8 0.7 1.5 1.5 1.5 0.8 0 1.5 0.7 1.5 1.5q0 1.5 3 1.5 3 0 3 1.5c0 0.8 0.7 1.5 1.5 1.5q1.5 0 1.5 3 0 3 1.5 3c0.8 0 1.5 0.7 1.5 1.5 0 0.8 0.7 1.5 1.5 1.5 0.8 0 1.5 0.7 1.5 1.5 0 0.8 0.7 1.5 1.5 1.5 0.8 0 1.5 0.7 1.5 1.5 0 0.8 0.7 1.5 1.5 1.5 0.8 0 1.5 0.7 1.5 1.5 0 0.8 0.7 1.5 1.5 1.5 0.8 0 1.5 0.5 1.5 1 0 0.5 2.7 3.7 6 7 3.3 3.3 6.5 6 7 6 0.5 0 1 0.7 1 1.5 0 0.8 0.7 1.5 1.5 1.5 0.8 0 1.5 0.7 1.5 1.5 0 0.8 0.7 1.5 1.5 1.5 0.8 0 1.5 0.7 1.5 1.5 0 0.8 0.7 1.5 1.5 1.5 0.8 0 1.5 0.7 1.5 1.5 0 0.8 0.7 1.5 1.5 1.5 0.8 0 1.5 0.7 1.5 1.5 0 0.8 0.7 1.5 1.5 1.5 0.8 0 1.5 0.7 1.5 1.5 0 0.8 0.7 1.5 1.5 1.5 0.8 0 1.5 0.7 1.5 1.5 0 0.8 0.7 1.5 1.5 1.5 0.8 0 1.5 0.7 1.5 1.5 0 0.8 0.7 1.5 1.5 1.5 0.8 0 1.5 0.7 1.5 1.5 0 0.8 0.7 1.5 1.5 1.5 0.8 0 1.5 0.5 1.5 1 0 0.5 3.4 4.4 7.5 8.5 4.1 4.1 8 7.5 8.5 7.5 0.5 0 1 0.7 1 1.5 0 0.8 0.7 1.5 1.5 1.5 0.8 0 1.5 0.7 1.5 1.5q0 1.5 3 1.5 3 0 3 1.5c0 0.8 0.7 1.5 1.5 1.5 0.8 0 1.5 0.7 1.5 1.5 0 0.8 0.7 1.5 1.5 1.5 0.8 0 1.5 0.7 1.5 1.5 0 0.8 0.7 1.5 1.5 1.5 0.8 0 1.5 0.7 1.5 1.5 0 0.8 0.7 1.5 1.5 1.5 0.8 0 1.5 0.7 1.5 1.5 0 0.8 0.7 1.5 1.5 1.5 0.8 0 1.5 0.5 1.5 1 0 0.5 2.1 3.2 4.7 6 2.7 2.7 5.6 4.9 6.5 5 1 0 3.5 1.8 5.5 4 2.1 2.1 4.4 3.9 5 4 0.7 0 1.3 0.7 1.3 1.5q0 1.5 3 1.5 3 0 3 1.5c0 0.8 0.7 1.5 1.5 1.5 0.8 0 1.5 0.7 1.5 1.5 0 0.8 0.7 1.5 1.5 1.5 0.8 0 1.5 0.7 1.5 1.5 0 0.8 0.7 1.5 1.5 1.5 0.8 0 1.5 0.7 1.5 1.5 0 0.9 0.9 1.5 2.5 1.5 1.6 0 2.5 0.6 2.5 1.5 0 0.8 0.7 1.5 1.5 1.5 0.8 0 1.5 0.7 1.5 1.5 0 0.8 0.7 1.5 1.5 1.5 0.8 0 1.5 0.7 1.5 1.5 0 0.8 0.7 1.5 1.5 1.5 0.8 0 1.5 0.7 1.5 1.5q0 1.5 3 1.5 3 0 3 1.5c0 0.8 0.7 1.5 1.5 1.5 0.8 0 1.5 0.7 1.5 1.5 0 0.8 0.7 1.5 1.5 1.5 0.8 0 1.5 0.7 1.5 1.5q0 1.5 3 1.5 3 0 3 1.5c0 0.8 0.7 1.5 1.5 1.5 0.8 0 1.5 0.5 1.5 1 0 0.5 1 1 2.2 1 1.4 0 4 1.9 6.5 4.5 2.4 2.5 5.2 4.5 6.3 4.5 1.1 0 2 0.7 2 1.5 0 0.8 0.7 1.5 1.5 1.5 0.8 0 1.5 0.7 1.5 1.5q0 1.5 3 1.5 3 0 3 1.5c0 0.8 0.7 1.5 1.5 1.5 0.8 0 1.5 0.7 1.5 1.5q0 1.5 3 1.5 3 0 3 1.5c0 0.8 0.7 1.5 1.5 1.5 0.8 0 1.5 0.7 1.5 1.5q0 1.5 3 1.5 3 0 3 1.5c0 0.8 0.7 1.5 1.5 1.5 0.8 0 1.5 0.7 1.5 1.5q0 1.5 3 1.5c1.7 0 3 0.5 3 1 0 0.5 0.8 1.9 1.7 3 1 1.1 2.8 2 4 2 1.3 0 2.3 0.5 2.3 1 0 0.5 1.3 1 3 1q3 0 3 1.5c0 0.8 0.7 1.5 1.5 1.5 0.8 0 1.5 0.7 1.5 1.5q0 1.5 3 1.5 3 0 3 1.5 0 1.5 3 1.5 3 0 3 1.5c0 0.8 0.7 1.5 1.5 1.5 0.8 0 1.5 0.7 1.5 1.5q0 1.5 3 1.5 3 0 3 1.5c0 0.9 0.9 1.5 2.5 1.5 1.6 0 2.5 0.6 2.5 1.5q0 1.5 3 1.5 3 0 3 1.5 0 1.5 3 1.5 3 0 3 1.5 0 1.5 3 1.5 3 0 3 1.5 0 1.5 3 1.5 3 0 3 1.5c0 0.8 0.7 1.5 1.5 1.5 0.8 0 1.5 0.7 1.5 1.5q0 1.5 3 1.5 3 0 3 1.5 0 1.5 3 1.5c1.7 0 3 0.5 3 1 0 0.5 1.1 1 2.5 1 1.6 0 2.5 0.6 2.5 1.5q0 1.5 3 1.5 3 0 3 1.5c0 1.1 1.2 1.5 4.5 1.5 3.3 0 4.5 0.4 4.5 1.5q0 1.5 3 1.5 3 0 3 1.5 0 1.5 3 1.5 3 0 3 1.5 0 1.5 3 1.5 3 0 3 1.5c0 1.1 1.1 1.5 4 1.5 2.9 0 4 0.4 4 1.5q0 1.5 3 1.5 3 0 3 1.5c0 1.1 1.2 1.5 4.5 1.5 3.3 0 4.5 0.4 4.5 1.5q0 1.5 3 1.5 3 0 3 1.5c0 1.1 1.2 1.5 4.5 1.5 3.3 0 4.5-0.4 4.5-1.5 0-0.8-0.7-1.5-1.5-1.5-0.8 0-1.5-0.7-1.5-1.5 0-0.8-0.7-1.5-1.5-1.5q-1.5 0-1.5-3 0-3-1.5-3-1.5 0-1.5-3 0-3-1.5-3-1.5 0-1.5-3 0-3-1.5-3c-0.8 0-1.5-0.7-1.5-1.5 0-0.8-0.7-1.5-1.5-1.5-0.9 0-1.5-0.9-1.5-2.5 0-1.4-0.7-2.7-1.5-3-0.8-0.3-1.5-1.6-1.5-3 0-1.6-0.6-2.5-1.5-2.5-0.8 0-1.5-0.7-1.5-1.5 0-0.8-0.7-1.5-1.5-1.5q-1.5 0-1.5-3 0-3-1.5-3-1.5 0-1.5-3 0-3-1.5-3c-1 0-1.4-0.8-1.3-2.4 0.2-1.6-0.7-3.3-2.5-5-1.5-1.4-2.7-3.5-2.7-4.6 0-1.1-0.7-2.2-1.5-2.5-0.8-0.3-1.5-1.6-1.5-3 0-1.6-0.6-2.5-1.5-2.5-0.8 0-1.5-0.7-1.5-1.5 0-0.8-0.7-1.5-1.5-1.5q-1.5 0-1.5-3 0-3-1.5-3-1.5 0-1.5-3 0-3-1.5-3c-0.8 0-1.5-0.7-1.5-1.5 0-0.8-0.7-1.5-1.5-1.5q-1.5 0-1.5-3 0-3-1.5-3-1.5 0-1.5-3 0-3-1.5-3c-0.8 0-1.5-0.7-1.5-1.5 0-0.8-0.7-1.5-1.5-1.5q-1.5 0-1.5-3 0-3-1.5-3c-0.9 0-1.5-0.9-1.5-2.5 0-1.4-0.7-2.7-1.5-3-0.8-0.3-1.5-1.4-1.5-2.5 0-1.1-1.1-3-2.5-4.3-1.4-1.3-2.4-3.3-2.5-5 0-1.7-0.5-2.7-1.5-2.7q-1.5 0-1.5-3 0-3-1.5-3-1.5 0-1.5-3 0-3-1.5-3c-0.8 0-1.5-0.7-1.5-1.5 0-0.8-0.7-1.5-1.5-1.5-0.9 0-1.5-0.9-1.5-2.5 0-1.4-0.7-2.7-1.5-3-0.8-0.3-1.5-1.6-1.5-3 0-1.6-0.6-2.5-1.5-2.5-0.8 0-1.5-0.7-1.5-1.5 0-0.8-0.7-1.5-1.5-1.5q-1.5 0-1.5-3 0-3-1.5-3-1.5 0-1.5-3 0-3-1.5-3-1.5 0-1.5-3 0-3-1.5-3c-0.8 0-1.5-0.7-1.5-1.5 0-0.8-0.7-1.5-1.5-1.5q-1.5 0-1.5-3 0-3-1.5-3-1.5 0-1.5-3c0-1.7-0.5-3-1-3-0.5 0-1.7-0.7-2.5-1.5-0.8-0.8-1.5-2.6-1.5-4 0-1.6-0.6-2.5-1.5-2.5q-1.5 0-1.5-3 0-3-1.5-3-1.5 0-1.5-3 0-3-1.5-3c-0.8 0-1.5-0.7-1.5-1.5 0-0.8-0.7-1.5-1.5-1.5q-1.5 0-1.5-3 0-3-1.5-3-1.5 0-1.5-3 0-3-1.5-3c-0.8 0-1.5-0.7-1.5-1.5 0-0.8-0.7-1.5-1.5-1.5q-1.5 0-1.5-3 0-3-1.5-3c-0.9 0-1.5-0.9-1.5-2.5 0-1.6-0.6-2.5-1.5-2.5q-1.5 0-1.5-3 0-3-1.5-3c-0.8 0-1.5-0.7-1.5-1.5 0-0.8-0.7-1.5-1.5-1.5q-1.5 0-1.5-3 0-3-1.5-3-1.5 0-1.5-3 0-3-1.5-3c-0.8 0-1.5-0.7-1.5-1.5 0-0.8-0.5-1.5-1-1.5-0.5 0-1-1.1-1-2.5 0-1.4-0.7-2.7-1.5-3-0.8-0.3-1.5-1.6-1.5-3 0-1.4-0.7-2.7-1.5-3-0.8-0.3-1.5-1.6-1.5-3 0-1.6-0.6-2.5-1.5-2.5-0.8 0-1.5-0.7-1.5-1.5 0-0.8-0.7-1.5-1.5-1.5q-1.5 0-1.5-3 0-3-1.5-3-1.5 0-1.5-3 0-3-1.5-3-1.5 0-1.5-3 0-3-1.5-3c-0.8 0-1.5-0.7-1.5-1.5 0-0.8-0.7-1.5-1.5-1.5q-1.5 0-1.5-3 0-3-1.5-3-1.5 0-1.5-3c0-1.7-0.5-3-1-3-0.5 0-1.9-0.8-3-1.8-1.1-0.9-2-2.7-2-4 0-1.2-0.7-2.4-1.5-2.7-0.8-0.3-1.5-1.6-1.5-3 0-1.4-0.7-2.7-1.5-3-0.8-0.3-1.5-1.5-1.5-2.8-0.1-1.2-1.2-3.2-2.5-4.5-1.4-1.2-2.5-3.1-2.5-4.2 0-1.1-0.7-2.2-1.5-2.5-0.8-0.3-1.5-1.5-1.5-2.8 0-1.2-1.2-3.3-2.9-4.7-1.7-1.4-3-3.5-3.1-4.8 0-1.3-0.6-2.2-1.5-2.2q-1.5 0-1.5-3 0-3-1.5-3c-0.8 0-1.5-0.7-1.5-1.5 0-0.8-0.7-1.5-1.5-1.5q-1.5 0-1.5-3 0-3-1.5-3-1.5 0-1.5-3 0-3-1.5-3c-0.8 0-1.5-0.7-1.5-1.5 0-0.8-0.7-1.5-1.5-1.5q-1.5 0-1.5-3 0-3-1.5-3-1.5 0-1.5-3 0-3-1.5-3c-0.9 0-1.5-0.9-1.5-2.3-0.1-1.2-1.4-3.3-3.1-4.7-1.7-1.4-2.9-3.5-2.9-4.8 0-1.2-0.5-2.2-1-2.2-0.5 0-1-1.3-1-3q0-3-1.5-3-1.5 0-1.5-3 0-3-1.5-3c-0.8 0-1.5-0.7-1.5-1.5 0-0.8-0.7-1.5-1.5-1.5q-1.5 0-1.5-3 0-3-1.5-3-1.5 0-1.5-3 0-3-1.5-3c-0.8 0-1.5-0.7-1.5-1.5 0-0.8-0.7-1.5-1.5-1.5-0.9 0-1.5-0.9-1.5-2.5 0-1.6-0.6-2.5-1.5-2.5-0.8 0-1.5-0.7-1.5-1.5 0-0.8-0.7-1.5-1.5-1.5-1.1 0-1.5-1.2-1.5-4.5 0-3.3-0.4-4.5-1.5-4.5-0.8 0-1.5-0.7-1.5-1.5 0-0.8-0.7-1.5-1.5-1.5q-1.5 0-1.5-3 0-3-1.5-3-1.5 0-1.5-3 0-3-1.5-3c-0.8 0-1.5-0.7-1.5-1.5 0-0.8-0.7-1.5-1.5-1.5q-1.5 0-1.5-3c0-1.7-0.5-3-1-3-0.5 0-1-1.1-1-2.5 0-1.6-0.6-2.5-1.5-2.5-0.8 0-1.5-0.7-1.5-1.5 0-0.8-0.7-1.5-1.5-1.5q-1.5 0-1.5-3 0-3-1.5-3-1.5 0-1.5-3 0-3-1.5-3-1.5 0-1.5-3 0-3-1.5-3c-0.8 0-1.5-0.7-1.5-1.5 0-0.8-0.7-1.5-1.5-1.5q-1.5 0-1.5-3 0-3-1.5-3-1.5 0-1.5-3 0-3-1.5-3c-0.8 0-1.5-0.7-1.5-1.5 0-0.8-0.7-1.5-1.5-1.5-0.9 0-1.5-0.9-1.5-2.5 0-1.4-0.7-2.7-1.5-3-0.8-0.3-1.5-1.6-1.5-3 0-1.4-0.7-2.7-1.5-3-0.8-0.3-1.5-1.6-1.5-3 0-1.6-0.6-2.5-1.5-2.5-0.8 0-1.5-0.7-1.5-1.5 0-0.8-0.7-1.5-1.5-1.5q-1.5 0-1.5-3c0-1.7-0.5-3-1-3-0.5 0-1-1-1-2.3 0-1.2-1.2-3.3-2.9-4.7-1.7-1.4-3-3.5-3.1-4.8 0-1.2-0.7-2.4-1.5-2.7-0.8-0.3-1.5-1.6-1.5-3 0-1.6-0.6-2.5-1.5-2.5-0.8 0-1.5-0.7-1.5-1.5 0-0.8-0.7-1.5-1.5-1.5q-1.5 0-1.5-3 0-3-1.5-3-1.5 0-1.5-3 0-3-1.5-3-1.5 0-1.5-3 0-3-1.5-3c-0.8 0-1.5-0.7-1.5-1.5 0-0.8-0.7-1.5-1.5-1.5q-1.5 0-1.5-3 0-3-1.5-3-1.5 0-1.5-3 0-3-1.5-3c-0.8 0-1.5-0.7-1.5-1.5 0-0.8-0.7-1.5-1.5-1.5-0.9 0-1.5-0.9-1.5-2.5 0-1.4-0.7-2.7-1.5-3-0.8-0.3-1.5-1.6-1.5-3 0-1.4-0.5-2.5-1-2.5-0.5 0-1-1.3-1-3q0-3-1.5-3c-0.8 0-1.5-0.7-1.5-1.5 0-0.8-0.7-1.5-1.5-1.5q-1.5 0-1.5-3 0-3-1.5-3-1.5 0-1.5-3 0-3-1.5-3c-0.8 0-1.5-0.7-1.5-1.5 0-0.8-0.7-1.5-1.5-1.5-0.9 0-1.5-0.9-1.5-2.5 0-1.4-0.7-2.7-1.5-3-0.8-0.3-1.5-1.6-1.5-3 0-1.6-0.6-2.5-1.5-2.5q-1.5 0-1.5-3 0-3-1.5-3c-0.8 0-1.5-0.7-1.5-1.5 0-0.8-0.7-1.5-1.5-1.5q-1.5 0-1.5-3 0-3-1.5-3-1.5 0-1.5-3 0-3-1.5-3-1.5 0-1.5-3 0-3-1.5-3c-0.8 0-1.5-0.7-1.5-1.5 0-0.8-0.7-1.5-1.5-1.5-0.8 0-1.5-0.7-1.5-1.5 0-0.9-0.9-1.5-2.5-1.5-1.4 0-2.7-0.7-3-1.5-0.4-1.1-2-1.5-6-1.5-4.2 0-5.5 0.3-5.5 1.5zm554 3c0 1.2-2 1.5-12 1.5-10 0-12 0.2-12 1.5 0 1.2-1.6 1.5-8.5 1.5-6.9 0-8.5 0.3-8.5 1.5 0 1.2-1.3 1.5-6 1.5-4.7 0-6 0.3-6 1.5 0 1.1-1.2 1.5-4.5 1.5-3.3 0-4.5 0.4-4.5 1.5q0 1.5-3 1.5-3 0-3 1.5c0 1.1-1.2 1.5-4.5 1.5-3.3 0-4.5 0.4-4.5 1.5 0 1.1-1.1 1.5-4 1.5q-4 0-4.5 1.5c-0.3 0.8-1.6 1.5-3 1.5-1.6 0-2.5 0.6-2.5 1.5q0 1.5-3 1.5-3 0-3 1.5 0 1.5-3 1.5-3 0-3 1.5 0 1.5-3 1.5-3 0-3 1.5c0 0.8-0.7 1.5-1.5 1.5-0.8 0-1.5 0.5-1.5 1 0 0.5-1.1 1-2.5 1-1.4 0-2.7 0.7-3 1.5-0.3 0.8-1.6 1.5-3 1.5-1.6 0-2.5 0.6-2.5 1.5 0 0.8-0.7 1.5-1.5 1.5-0.8 0-1.5 0.7-1.5 1.5q0 1.5-3 1.5-3 0-3 1.5c0 0.8-0.7 1.5-1.5 1.5-0.8 0-1.5 0.7-1.5 1.5 0 0.8-0.7 1.5-1.5 1.5-0.8 0-1.5 0.7-1.5 1.5 0 0.8-0.7 1.5-1.5 1.5-0.8 0-1.5 0.7-1.5 1.5q0 1.5-3 1.5-3 0-3 1.5c0 0.8-0.7 1.5-1.5 1.5-0.8 0-1.5 0.7-1.5 1.5 0 0.8-0.7 1.5-1.5 1.5-0.8 0-1.5 0.7-1.5 1.5 0 0.8-0.7 1.5-1.5 1.5-0.8 0-1.5 0.7-1.5 1.5 0 0.8-0.7 1.5-1.5 1.5-0.8 0-1.5 0.7-1.5 1.5 0 0.8-0.7 1.5-1.5 1.5-0.8 0-1.5 0.5-1.5 1 0 0.5-0.6 1.7-1.4 2.5-0.8 0.8-1.9 1.5-2.5 1.5-0.6 0-1.1 0.7-1.1 1.5 0 0.8-0.7 1.5-1.5 1.5-0.8 0-1.5 0.7-1.5 1.5 0 0.8-0.7 1.5-1.5 1.5-0.8 0-1.5 0.7-1.5 1.5 0 0.8-0.7 1.5-1.5 1.5q-1.5 0-1.5 3 0 3-1.5 3c-0.8 0-1.5 0.7-1.5 1.5 0 0.8-0.7 1.5-1.5 1.5-0.8 0-1.5 0.7-1.5 1.5 0 0.8-0.7 1.5-1.5 1.5q-1.5 0-1.5 3 0 3-1.5 3c-0.8 0-1.5 0.7-1.5 1.5 0 0.8-0.7 1.5-1.5 1.5-0.8 0-1.5 0.7-1.5 1.5 0 0.8-0.7 1.5-1.5 1.5q-1.5 0-1.5 3 0 3-1.5 3c-0.8 0-1.5 0.7-1.5 1.5 0 0.8-0.7 1.5-1.5 1.5-0.9 0-1.5 0.9-1.5 2.5 0 1.4-0.7 2.7-1.5 3-0.8 0.3-1.5 1.6-1.5 3 0 1.4-0.7 2.7-1.5 3-0.8 0.3-1.5 1.6-1.5 3 0 1.4-0.5 2.5-1 2.5-0.5 0-1 1.3-1 3q0 3-1.5 3-1.5 0-1.5 3 0 3-1.5 3c-0.9 0-1.5 0.9-1.5 2.5 0 1.4-0.7 2.7-1.5 3q-1.5 0.5-1.5 4.5c0 2.9-0.4 4-1.5 4q-1.5 0-1.5 3 0 3-1.5 3c-1.1 0-1.5 1.2-1.5 4.5 0 3.3-0.4 4.5-1.5 4.5-1.2 0-1.5 1.3-1.5 6 0 4.7-0.3 6-1.5 6-1.2 0-1.5 1.3-1.5 6 0 4.7-0.3 6-1.5 6-1.2 0-1.5 1.4-1.5 7 0 5.6-0.3 7-1.5 7-1.3 0-1.5 2.3-1.5 14.5 0 12-0.3 14.6-1.5 15-1.2 0.4-1.5 3-1.5 15 0 12.2 0.2 14.5 1.5 14.5 1.3 0 1.5 2.3 1.5 14.5 0 12.2 0.2 14.5 1.5 14.5 1.2 0 1.5 1.5 1.5 7.5 0 6 0.3 7.5 1.5 7.5 1.2 0 1.5 1.3 1.5 5.5 0 4.2 0.3 5.5 1.5 5.5 1.1 0 1.5 1.2 1.5 4.5 0 3.3 0.4 4.5 1.5 4.5 1.1 0 1.5 1.2 1.5 4.5 0 3.3 0.4 4.5 1.5 4.5 1.1 0 1.5 1.2 1.5 4.5 0 3.3 0.4 4.5 1.5 4.5 1.1 0 1.5 1.2 1.5 4.5 0 3.3 0.4 4.5 1.5 4.5 0.9 0 1.5 0.9 1.5 2.5 0 1.4 0.7 2.7 1.5 3 0.8 0.3 1.5 1.6 1.5 3 0 1.4 0.7 2.7 1.5 3 0.8 0.3 1.5 1.6 1.5 3 0 1.4 0.5 2.5 1 2.5 0.5 0 1 1.3 1 3q0 3 1.5 3 1.5 0 1.5 3 0 3 1.5 3c0.8 0 1.5 0.7 1.5 1.5 0 0.8 0.7 1.5 1.5 1.5q1.5 0 1.5 3 0 3 1.5 3c0.9 0 1.5 0.9 1.5 2.2 0 1.3 0.9 3.1 2 4 1.1 1 2.5 1.8 3 1.8 0.5 0 1 0.7 1 1.5 0 0.8 0.7 1.5 1.5 1.5q1.5 0 1.5 3 0 3 1.5 3c0.8 0 1.5 0.7 1.5 1.5 0 0.8 0.7 1.5 1.5 1.5 0.8 0 1.5 0.7 1.5 1.5 0 0.8 0.7 1.5 1.5 1.5q1.5 0 1.5 3 0 3 1.5 3c0.8 0 1.5 0.7 1.5 1.5 0 0.8 0.7 1.5 1.5 1.5 0.8 0 1.5 0.7 1.5 1.5 0 0.8 0.7 1.5 1.5 1.5 0.8 0 1.5 0.7 1.5 1.5 0 0.8 0.7 1.5 1.5 1.5 0.8 0 1.5 0.5 1.5 1 0 0.5 2 3 4.5 5.5 2.5 2.5 5 4.5 5.5 4.5 0.5 0 1 0.7 1 1.5 0 0.8 0.7 1.5 1.5 1.5 0.8 0 1.5 0.7 1.5 1.5 0 0.8 0.7 1.5 1.5 1.5 0.8 0 1.5 0.7 1.5 1.5 0 0.8 0.7 1.5 1.5 1.5 0.8 0 1.5 0.7 1.5 1.5 0 0.8 0.7 1.5 1.5 1.5 0.8 0 1.5 0.7 1.5 1.5q0 1.5 3 1.5 3 0 3 1.5c0 0.8 0.7 1.5 1.5 1.5 0.8 0 1.5 0.7 1.5 1.5 0 0.8 0.7 1.5 1.5 1.5 0.8 0 1.5 0.7 1.5 1.5q0 1.5 3 1.5c1.7 0 3 0.5 3 1 0 0.5 0.8 1.9 1.7 3 1 1.1 2.8 2 4 2 1.4 0 2.3 0.6 2.3 1.5 0 0.8 0.7 1.5 1.5 1.5 0.8 0 1.7 0.7 2 1.5 0.3 0.8 1.6 1.5 3 1.5 1.6 0 2.5 0.6 2.5 1.5q0 1.5 3 1.5 3 0 3 1.5c0 0.8 0.7 1.5 1.5 1.5 0.8 0 1.5 0.5 1.5 1 0 0.5 1.1 1 2.5 1 1.4 0 2.7 0.7 3 1.5 0.3 0.8 1.6 1.5 3 1.5 1.4 0 2.7 0.7 3 1.5q0.5 1.5 4.5 1.5c2.9 0 4 0.4 4 1.5q0 1.5 3 1.5 3 0 3 1.5 0 1.5 3 1.5 3 0 3 1.5c0 1.1 1.2 1.5 4.5 1.5 3.3 0 4.5 0.4 4.5 1.5 0 1.1 1.2 1.5 4.5 1.5 3.3 0 4.5 0.4 4.5 1.5 0 1.2 1.3 1.5 5.5 1.5 4.2 0 5.5 0.3 5.5 1.5 0 1.2 1.5 1.5 7.5 1.5 6 0 7.5 0.3 7.5 1.5 0 1.2 1.7 1.5 9 1.5 7.3 0 9 0.3 9 1.5 0 1.3 7.7 1.5 63 1.5 55.3 0 63 0.2 63 1.5 0 1.2 1.3 1.5 5.5 1.5 4 0 5.6 0.4 6 1.5q0.5 1.5 4.5 1.5 4 0 4.5 1.5c0.3 0.8 1.6 1.5 3 1.5 1.4 0 2.5 0.5 2.5 1 0 0.5 1 1 2.2 1 1.3 0 3.4 1.2 4.8 2.9 1.4 1.7 3.4 3 4.5 3.1 1.1 0 3.5 1.6 5.3 3.5 1.7 1.9 3.2 4 3.2 4.5 0 0.5 0.7 1 1.5 1q1.5 0 1.5 3 0 3 1.5 3c0.8 0 1.5 0.7 1.5 1.5 0 0.8 0.7 1.5 1.5 1.5 0.8 0 1.5 0.7 1.5 1.5 0 0.8 0.7 1.5 1.5 1.5q1.5 0 1.5 3 0 3 1.5 3c1.1 0 1.5 1.1 1.5 4 0 2.9 0.4 4 1.5 4 1.1 0 1.5 1.2 1.5 4.5 0 3.3 0.4 4.5 1.5 4.5 1.3 0 1.5 2.3 1.5 15 0 12.7-0.2 15-1.5 15-1.2 0-1.5 1.3-1.5 5.5 0 4.2-0.3 5.5-1.5 5.5q-1.5 0-1.5 3 0 3-1.5 3-1.5 0-1.5 3 0 3-1.5 3-1.5 0-1.5 3 0 3-1.5 3c-0.8 0-1.5 0.7-1.5 1.5 0 0.8-0.7 1.5-1.5 1.5-0.8 0-1.5 0.7-1.5 1.5 0 0.8-0.7 1.5-1.5 1.5-0.8 0-1.5 0.5-1.5 1 0 0.5-2 3-4.4 5.5-2.5 2.5-4.9 4.5-5.5 4.5-0.6 0-1.1 0.7-1.1 1.5q0 1.5-3 1.5-3 0-3 1.5 0 1.5-3 1.5-3 0-3 1.5 0 1.5-3 1.5-3 0-3 1.5c0 1.1-1.2 1.5-4.5 1.5-3.3 0-4.5 0.4-4.5 1.5 0 1.2-1.4 1.5-7 1.5-5.6 0-7 0.3-7 1.5 0 1.2-1.7 1.5-9 1.5-7.3 0-9 0.3-9 1.5 0 1.2-1.8 1.5-10 1.5-8.2 0-10 0.3-10 1.5 0 1.2-1.8 1.5-10.5 1.5-8.7 0-10.5 0.3-10.5 1.5 0 1.2-1.9 1.5-11.5 1.5-9.6 0-11.5 0.3-11.5 1.5 0 1.3-2.2 1.5-13.5 1.5-11.3 0-13.5 0.2-13.5 1.5 0 1.3-2.6 1.5-17.5 1.5-14.9 0-17.5 0.2-17.5 1.5 0 1.3-4.4 1.5-33.5 1.5-32.8 0-33.5 0-33.5 2 0 1.1 0.9 2.9 2 4 1.5 1.5 3.3 2 7 2 3.8 0 5 0.4 5 1.5 0 1.1 1.2 1.5 4.5 1.5 3.3 0 4.5 0.4 4.5 1.5 0 1.1 1.2 1.5 4.5 1.5 3.3 0 4.5 0.4 4.5 1.5 0 1.1 1.2 1.5 4.5 1.5 3.3 0 4.5 0.4 4.5 1.5 0 1.2 1.3 1.5 5.5 1.5 4 0 5.6 0.4 6 1.5 0.4 1.1 2 1.5 6 1.5 4.2 0 5.5 0.3 5.5 1.5 0 1.1 1.2 1.5 4.5 1.5 3.3 0 4.5 0.4 4.5 1.5 0 1.2 1.3 1.5 6 1.5 4.7 0 6 0.3 6 1.5 0 1.2 1.4 1.5 7 1.5 5.3 0 7.1 0.4 7.5 1.5 0.4 1.1 2 1.5 6 1.5 4.2 0 5.5 0.3 5.5 1.5 0 1.2 1.5 1.5 7.5 1.5 6 0 7.5 0.3 7.5 1.5 0 1.2 1.4 1.5 7 1.5 5.3 0 7.1 0.4 7.5 1.5 0.4 1.2 2.3 1.5 9 1.5 5 0 8.5 0.4 8.5 1 0 0.6 4.5 1 11.5 1 9.6 0 11.5 0.3 11.5 1.5 0 1.3 4.9 1.5 38.5 1.5 33.6 0 38.5-0.2 38.5-1.5 0-1.2 1.4-1.5 7-1.5 4 0 7-0.4 7-1 0-0.6 2.7-1 6-1 4.7 0 6-0.3 6-1.5 0-1.2 1.3-1.5 5.5-1.5 4 0 5.6-0.4 6-1.5q0.5-1.5 4.5-1.5c2.9 0 4-0.4 4-1.5q0-1.5 3-1.5 3 0 3-1.5c0-1.1 1.2-1.5 4.5-1.5 3.3 0 4.5-0.4 4.5-1.5q0-1.5 3-1.5 3 0 3-1.5c0-1.1 1.2-1.5 4.5-1.5 3.3 0 4.5-0.4 4.5-1.5q0-1.5 3-1.5 3 0 3-1.5 0-1.5 3-1.5 3 0 3-1.5c0-0.9 0.9-1.5 2.5-1.5 1.4 0 2.7-0.7 3-1.5q0.5-1.5 4.5-1.5c2.9 0 4-0.4 4-1.5q0-1.5 3-1.5 3 0 3-1.5 0-1.5 3-1.5 3 0 3-1.5 0-1.5 3-1.5c1.7 0 3-0.5 3-1 0-0.5 1-1 2.3-1 1.2 0 3.3-1.2 4.7-2.9 1.4-1.7 3.5-3 4.8-3.1 1.3 0 2.2-0.6 2.2-1.5q0-1.5 3-1.5 3 0 3-1.5 0-1.5 3-1.5 3 0 3-1.5 0-1.5 3-1.5 3 0 3-1.5 0-1.5 3-1.5 3 0 3-1.5c0-0.8 0.7-1.5 1.5-1.5 0.8 0 1.5-0.7 1.5-1.5q0-1.5 3-1.5 3 0 3-1.5c0-0.9 0.9-1.5 2.3-1.5 1.2-0.1 3.3-1.4 4.7-3.1 1.4-1.7 3.5-2.9 4.8-2.9 1.2 0 2.4-0.7 2.7-1.5 0.3-0.8 1.5-1.5 2.8-1.5 1.2-0.1 3.3-1.4 4.7-3.1 1.4-1.6 3.4-2.9 4.5-3 1.1 0 3.7-1.8 5.8-3.9 2-2.2 4.5-4 5.5-4 0.9-0.1 3.2-1.6 5-3.5l3.2-3.5c0-61.8-0.4-75-1-75-0.6 0-1-4-1-10 0-8-0.3-10.1-1.5-10.5-1.1-0.4-1.5-2-1.5-6 0-4-0.4-5.6-1.5-6q-1.5-0.5-1.5-4.5c0-2.9-0.4-4-1.5-4-1.1 0-1.5-1.2-1.5-4.5 0-3.3-0.4-4.5-1.5-4.5-1.2 0-1.5-1.3-1.5-6 0-4.7-0.3-6-1.5-6q-1.5 0-1.5-3 0-3-1.5-3-1.5 0-1.5-3 0-3-1.5-3c-1.1 0-1.5-1.1-1.5-4 0-2.9-0.4-4-1.5-4q-1.5 0-1.5-3 0-3-1.5-3-1.5 0-1.5-3 0-3-1.5-3-1.5 0-1.5-3 0-3-1.5-3c-0.8 0-1.5-0.7-1.5-1.5 0-0.8-0.7-1.5-1.5-1.5q-1.5 0-1.5-3 0-3-1.5-3c-0.8 0-1.5-0.7-1.5-1.5 0-0.8-0.4-1.5-1-1.5-0.6 0-1-1-1-2.3 0-1.2-0.9-3-2-4-1.1-0.9-2.4-1.7-3-1.7-0.6 0-1-1.3-1-3q0-3-1.5-3c-0.8 0-1.5-0.7-1.5-1.5 0-0.8-0.7-1.5-1.5-1.5-0.8 0-1.5-0.7-1.5-1.5 0-0.8-0.7-1.5-1.5-1.5q-1.5 0-1.5-3 0-3-1.5-3c-0.8 0-1.5-0.7-1.5-1.5 0-0.8-0.7-1.5-1.5-1.5-0.8 0-1.5-0.7-1.5-1.5 0-0.8-0.7-1.5-1.5-1.5-0.8 0-1.5-0.7-1.5-1.5 0-0.8-0.7-1.5-1.5-1.5-0.8 0-1.5-0.7-1.5-1.5 0-0.8-0.7-1.5-1.5-1.5-0.8 0-1.5-0.7-1.5-1.5 0-0.8-0.7-1.5-1.5-1.5-0.8 0-1.5-0.7-1.5-1.5 0-0.8-0.7-1.5-1.5-1.5-0.8 0-1.5-0.7-1.5-1.5 0-0.8-0.4-1.5-1-1.5-0.6 0-1.7-0.7-2.5-1.5-0.8-0.8-1.5-2-1.5-2.5 0-0.5-0.7-1-1.5-1-0.8 0-1.5-0.7-1.5-1.5 0-0.8-0.7-1.5-1.5-1.5-0.8 0-1.5-0.7-1.5-1.5q0-1.5-3-1.5-3 0-3-1.5c0-0.8-0.7-1.5-1.5-1.5-0.8 0-1.5-0.7-1.5-1.5 0-0.8-0.7-1.5-1.5-1.5-0.8 0-1.5-0.7-1.5-1.5 0-0.8-0.7-1.5-1.5-1.5-0.8 0-1.5-0.7-1.5-1.5q0-1.5-3-1.5-3 0-3-1.5c0-0.8-0.7-1.5-1.5-1.5-0.8 0-1.5-0.7-1.5-1.5q0-1.5-3-1.5-3 0-3-1.5c0-0.9-0.9-1.5-2.3-1.5-1.2-0.1-3.3-1.4-4.7-3.1-1.4-1.7-3.5-2.9-4.8-2.9-1.2 0-2.4-0.7-2.7-1.5-0.3-0.8-1.6-1.5-3-1.5-1.4 0-2.5-0.5-2.5-1 0-0.5-1.3-1-3-1q-3 0-3-1.5 0-1.5-3-1.5-3 0-3-1.5c0-0.9-0.9-1.5-2.5-1.5-1.4 0-2.7-0.7-3-1.5q-0.5-1.5-4.5-1.5-4 0-4.5-1.5-0.5-1.5-4.5-1.5c-2.9 0-4-0.4-4-1.5 0-1.1-1.2-1.5-4.5-1.5-3.3 0-4.5-0.4-4.5-1.5 0-1.1-1.2-1.5-4.5-1.5-3.3 0-4.5-0.4-4.5-1.5 0-1.2-1.5-1.5-7.5-1.5-6 0-7.5-0.3-7.5-1.5 0-1.2-1.4-1.5-7-1.5-5.6 0-7-0.3-7-1.5 0-1.3-6.7-1.5-54.5-1.5-47.8 0-54.5-0.2-54.5-1.5 0-1.3-2.3-1.5-14.5-1.5-12.2 0-14.5-0.2-14.5-1.5 0-1.1-1.2-1.5-4.5-1.5-3.3 0-4.5-0.4-4.5-1.5 0-1.1-1.1-1.5-4-1.5q-4 0-4.5-1.5c-0.3-0.8-1.6-1.5-3-1.5-1.4 0-2.5-0.5-2.5-1 0-0.5-0.7-1-1.5-1-0.8 0-1.5-0.7-1.5-1.5 0-0.8-0.7-1.5-1.5-1.5-0.8 0-1.5-0.7-1.5-1.5q0-1.5-3-1.5-3 0-3-1.5c0-0.8-0.7-1.5-1.5-1.5-0.8 0-1.5-0.7-1.5-1.5 0-0.8-0.7-1.5-1.5-1.5-0.8 0-1.5-0.7-1.5-1.5 0-0.8-0.7-1.5-1.5-1.5-0.8 0-1.5-0.7-1.5-1.5 0-0.8-0.7-1.5-1.5-1.5q-1.5 0-1.5-3 0-3-1.5-3c-0.8 0-1.5-0.7-1.5-1.5 0-0.8-0.7-1.5-1.5-1.5q-1.5 0-1.5-3 0-3-1.5-3-1.5 0-1.5-3c0-1.7-0.5-3-1-3-0.5 0-1-1.8-1-4 0-2.9-0.4-4-1.5-4-1.3 0-1.5-2.8-1.5-19 0-16 0.2-19.1 1.5-19.5q1.5-0.5 1.5-4.5c0-2.2 0.5-4 1-4 0.5 0 1-2 1-4.5 0-3.3 0.4-4.5 1.5-4.5 0.8 0 1.5-0.7 1.5-1.5 0-0.8 0.7-1.5 1.5-1.5q1.5 0 1.5-3 0-3 1.5-3c0.8 0 1.5-0.7 1.5-1.5 0-0.8 0.7-1.5 1.5-1.5 0.8 0 1.5-0.7 1.5-1.5 0-0.8 0.7-1.5 1.5-1.5 0.8 0 1.5-0.7 1.5-1.5 0-0.8 0.7-1.5 1.5-1.5 0.8 0 1.5-0.7 1.5-1.5 0-0.8 0.6-1.5 1.3-1.5 0.6-0.1 2.2-1.2 3.5-2.5 1.2-1.4 2.7-2.5 3.2-2.5 0.5 0 1-0.7 1-1.5 0-0.9 0.9-1.5 2.5-1.5 1.4 0 2.7-0.7 3-1.5 0.3-0.8 1.6-1.5 3-1.5 1.4 0 2.7-0.7 3-1.5q0.5-1.5 4.5-1.5c2.9 0 4-0.4 4-1.5 0-1.2 1.3-1.5 6-1.5 4.7 0 6-0.3 6-1.5 0-1.3 12.9-1.5 110-1.5 97.1 0 110-0.2 110-1.5 0-1.2 1.4-1.5 7-1.5 5.3 0 7.1-0.4 7.5-1.5q0.5-1.5 4.5-1.5c2.9 0 4-0.4 4-1.5q0-1.5 3-1.5 3 0 3-1.5 0-1.5 3-1.5 3 0 3-1.5c0-0.8 0.7-1.5 1.5-1.5 0.8 0 1.5-0.7 1.5-1.5q0-1.5 3-1.5 3 0 3-1.5c0-0.8 0.5-1.5 1.1-1.5 0.6 0 3-2 5.5-4.5 2.4-2.5 4.4-5 4.4-5.5 0-0.5 0.7-1 1.5-1 0.8 0 1.5-0.7 1.5-1.5 0-0.8 0.7-1.5 1.5-1.5 0.8 0 1.5-0.7 1.5-1.5 0-0.8 0.7-1.5 1.5-1.5q1.5 0 1.5-3 0-3 1.5-3c0.8 0 1.5-0.7 1.5-1.5 0-0.8 0.7-1.5 1.5-1.5q1.5 0 1.5-3 0-3 1.5-3 1.5 0 1.5-3 0-3 1.5-3c1.1 0 1.5-1.1 1.5-4 0-2.9 0.4-4 1.5-4 1.2 0 1.5-1.3 1.5-6 0-4.7 0.3-6 1.5-6 1.3 0 1.5-2.1 1.5-13 0-10.7-0.3-13.1-1.5-13.5-1.1-0.4-1.5-2-1.5-6 0-4.2-0.3-5.5-1.5-5.5-1.1 0-1.5-1.2-1.5-4.5 0-3.3-0.4-4.5-1.5-4.5q-1.5 0-1.5-3 0-3-1.5-3-1.5 0-1.5-3 0-3-1.5-3c-0.8 0-1.5-0.7-1.5-1.5 0-0.8-0.7-1.5-1.5-1.5q-1.5 0-1.5-3c0-1.7-0.4-3-1-3-0.6 0-3-2-5.5-4.5-2.5-2.5-4.5-5-4.5-5.5 0-0.5-0.7-1-1.5-1-0.8 0-1.5-0.7-1.5-1.5 0-0.8-0.7-1.5-1.5-1.5-0.8 0-1.5-0.7-1.5-1.5 0-0.8-0.7-1.5-1.5-1.5-0.8 0-1.5-0.7-1.5-1.5q0-1.5-3-1.5-3 0-3-1.5c0-0.8-0.7-1.5-1.5-1.5-0.8 0-1.5-0.7-1.5-1.5q0-1.5-3-1.5-3 0-3-1.5 0-1.5-3-1.5-3 0-3-1.5c0-1.1-1.2-1.5-4.5-1.5-3.3 0-4.5-0.4-4.5-1.5 0-1.2-1.4-1.5-7-1.5-5.3 0-7.1-0.4-7.5-1.5-0.4-1.3-14.7-1.5-120-1.5-105.6 0-119.5 0.2-119.5 1.5zm-657 651c0 1.3-2.6 1.5-17.5 1.5-14.9 0-17.5 0.2-17.5 1.5 0 1.2-1.9 1.5-11.5 1.5-9.3 0-11.6 0.3-12 1.5-0.4 1.1-2.2 1.5-7.5 1.5-5.6 0-7 0.3-7 1.5 0 1.2-1.7 1.5-9 1.5-5.3 0-9 0.4-9 1 0 0.5-2.5 1-5.5 1-4.2 0-5.5 0.3-5.5 1.5 0 1.2-1.3 1.5-6 1.5-4.7 0-6 0.3-6 1.5 0 1.1-1.2 1.5-4.5 1.5-3.3 0-4.5 0.4-4.5 1.5 0 1.2-1.3 1.5-5.5 1.5-4.2 0-5.5 0.3-5.5 1.5 0 1.1-1.2 1.5-4.5 1.5-3.3 0-4.5 0.4-4.5 1.5 0 1.1-1.2 1.5-4.5 1.5-3.3 0-4.5 0.4-4.5 1.5 0 1.1-1.2 1.5-4.5 1.5-3.3 0-4.5 0.4-4.5 1.5 0 1.1-1.2 1.5-4.5 1.5-3.3 0-4.5 0.4-4.5 1.5 0 1.1-1.1 1.5-4 1.5q-4 0-4.5 1.5c-0.3 0.8-1.6 1.5-3 1.5-1.6 0-2.5 0.6-2.5 1.5q0 1.5-3 1.5-3 0-3 1.5 0 1.5-3 1.5-3 0-3 1.5 0 1.5-3 1.5-3 0-3 1.5c0 1.1-1.2 1.5-4.5 1.5-2.5 0-4.5 0.5-4.5 1 0 0.5-1.1 1-2.5 1-1.6 0-2.5 0.6-2.5 1.5q0 1.5-3 1.5-3 0-3 1.5 0 1.5-3 1.5-3 0-3 1.5c0 0.8-0.7 1.5-1.5 1.5-0.8 0-1.5 0.7-1.5 1.5q0 1.5-3 1.5-3 0-3 1.5 0 1.5-3 1.5-3 0-3 1.5 0 1.5-3 1.5-3 0-3 1.5 0 1.5-3 1.5c-1.6 0-3 0.5-3 1 0 0.5-0.8 1.9-1.8 3-0.9 1.1-2.6 2-3.7 2.1-1.1 0-3.1 1.3-4.5 3-1.4 1.7-3.5 2.9-4.8 2.9-1.3 0-2.2 0.6-2.2 1.5 0 0.8-0.7 1.5-1.5 1.5-0.8 0-1.7 0.7-2 1.5-0.3 0.8-1.4 1.5-2.6 1.5-1.2 0-3.9 1.8-6.1 4-2.2 2.2-4.8 4-5.7 4-0.9 0-3.5 2.1-5.9 4.5-2.3 2.5-5.1 4.5-6.2 4.5-1.1 0-2 0.7-2 1.5 0 0.8-0.7 1.5-1.5 1.5-0.8 0-1.5 0.7-1.5 1.5 0 0.8-0.7 1.5-1.5 1.5-0.8 0-1.5 0.7-1.5 1.5 0 0.8-0.7 1.5-1.5 1.5-0.8 0-1.5 0.7-1.5 1.5 0 0.8-0.7 1.5-1.5 1.5-0.8 0-1.5 0.7-1.5 1.5q0 1.5-3 1.5c-2.7 0-3 0.3-3 3 0 2.7-0.3 3-3 3q-3 0-3 1.5c0 0.8-0.5 1.5-1.1 1.5-0.6 0-3.7 2.7-7 6-3.2 3.3-5.9 6.5-5.9 7 0 0.5-0.7 1-1.5 1-0.8 0-1.5 0.7-1.5 1.5 0 0.8-0.7 1.5-1.5 1.5-0.8 0-1.5 0.7-1.5 1.5 0 0.8-0.7 1.5-1.5 1.5-0.8 0-1.5 0.7-1.5 1.5 0 0.8-0.7 1.5-1.5 1.5-0.8 0-1.5 0.7-1.5 1.5 0 0.8-0.7 1.5-1.5 1.5q-1.5 0-1.5 3 0 3-1.5 3c-0.8 0-1.5 0.7-1.5 1.5 0 0.8-0.7 1.5-1.5 1.5-0.8 0-1.5 0.7-1.5 1.5 0 0.8-0.7 1.5-1.5 1.5-0.8 0-1.5 0.7-1.5 1.5 0 0.8-0.5 1.5-1 1.5-0.5 0-2.6 1.5-4.5 3.2-1.9 1.8-3.4 4.1-3.5 5 0 1-1.8 3.5-4 5.5-2.1 2.1-3.9 4.4-4 5 0 0.7-0.7 1.3-1.5 1.3q-1.5 0-1.5 3 0 3-1.5 3c-0.8 0-1.5 0.7-1.5 1.5 0 0.8-0.7 1.5-1.5 1.5q-1.5 0-1.5 3 0 3-1.5 3c-0.8 0-1.5 0.7-1.5 1.5 0 0.8-0.7 1.5-1.5 1.5-0.8 0-1.5 0.7-1.5 1.5 0 0.8-0.7 1.5-1.5 1.5-0.9 0-1.5 0.9-1.5 2.5 0 1.6-0.6 2.5-1.5 2.5-0.8 0-1.5 0.7-1.5 1.5 0 0.8-0.7 1.5-1.5 1.5q-1.5 0-1.5 3 0 3-1.5 3-1.5 0-1.5 3 0 3-1.5 3c-0.8 0-1.5 0.7-1.5 1.5 0 0.8-0.7 1.5-1.5 1.5q-1.5 0-1.5 3 0 3-1.5 3-1.5 0-1.5 3 0 3-1.5 3-1.5 0-1.5 3c0 1.7-0.5 3-1 3-0.5 0-1 1.1-1 2.5 0 1.6-0.6 2.5-1.5 2.5q-1.5 0-1.5 3 0 3-1.5 3-1.5 0-1.5 3 0 3-1.5 3-1.5 0-1.5 3 0 3-1.5 3c-1.2 0-1.5 1.3-1.5 6 0 4.7 0.3 6 1.5 6 0.8 0 1.5 0.7 1.5 1.5 0 1.2 1.3 1.5 5.5 1.5 4.2 0 5.5-0.3 5.5-1.5q0-1.5 3-1.5 3 0 3-1.5c0-0.8 0.7-1.5 1.5-1.5 0.8 0 1.5-0.7 1.5-1.5q0-1.5 3-1.5 3 0 3-1.5c0-0.8 0.7-1.5 1.5-1.5 0.8 0 1.5-0.7 1.5-1.5q0-1.5 3-1.5 3 0 3-1.5 0-1.5 3-1.5 3 0 3-1.5c0-0.8 0.7-1.5 1.5-1.5 0.8 0 1.5-0.7 1.5-1.5 0-0.8 0.7-1.5 1.5-1.5 0.8 0 1.5-0.7 1.5-1.5 0-0.9 0.9-1.5 2.5-1.5 1.4 0 2.7-0.7 3-1.5 0.3-0.8 1.4-1.5 2.5-1.5 1.1 0 3-1.1 4.3-2.5 1.3-1.4 3.3-2.4 5-2.5 1.7 0 2.7-0.5 2.7-1.5 0-0.8 0.7-1.5 1.5-1.5 0.8 0 1.5-0.7 1.5-1.5q0-1.5 3-1.5 3 0 3-1.5 0-1.5 3-1.5 3 0 3-1.5c0-0.9 0.9-1.5 2.5-1.5 1.4 0 2.7-0.7 3-1.5 0.3-0.8 1.6-1.5 3-1.5 1.6 0 2.5-0.6 2.5-1.5 0-0.8 0.7-1.5 1.5-1.5 0.8 0 1.5-0.7 1.5-1.5q0-1.5 3-1.5 3 0 3-1.5 0-1.5 3-1.5 3 0 3-1.5 0-1.5 3-1.5 3 0 3-1.5 0-1.5 3-1.5 3 0 3-1.5 0-1.5 3-1.5 3 0 3-1.5 0-1.5 3-1.5 3 0 3-1.5c0-0.9 0.9-1.5 2.5-1.5 1.4 0 2.5-0.5 2.5-1 0-0.5 1.4-1 3-1q3 0 3-1.5c0-1.1 1.2-1.5 4.5-1.5 3.3 0 4.5-0.4 4.5-1.5q0-1.5 3-1.5 3 0 3-1.5 0-1.5 3-1.5 3 0 3-1.5c0-1.1 1.1-1.5 4-1.5q4 0 4.5-1.5 0.5-1.5 4.5-1.5c2.9 0 4-0.4 4-1.5 0-1.1 1.2-1.5 4.5-1.5 3.3 0 4.5-0.4 4.5-1.5 0-1.1 1.2-1.5 4.5-1.5 3.3 0 4.5-0.4 4.5-1.5 0-1.2 1.3-1.5 6-1.5 4.7 0 6-0.3 6-1.5 0-1.2 1.3-1.5 5.5-1.5 4 0 5.6-0.4 6-1.5 0.4-1.1 2-1.5 6-1.5 4.2 0 5.5-0.3 5.5-1.5 0-1.2 1.5-1.5 7.5-1.5 6 0 7.5-0.3 7.5-1.5 0-1.2 1.8-1.5 10-1.5 8 0 10.1-0.3 10.5-1.5 0.4-1.3 3.3-1.5 17.5-1.5 14.2 0 17.1-0.2 17.5-1.5 0.4-1.3 6.2-1.5 44-1.5 38 0 43.5 0.2 43.5 1.5 0 1.3 2.4 1.5 16 1.5 13.3 0 16.1 0.2 16.5 1.5 0.4 1.2 2.8 1.5 13.5 1.5 10.9 0 13 0.2 13 1.5 0 1.2 1.8 1.5 10 1.5 8.2 0 10 0.3 10 1.5 0 1.2 1.7 1.5 9 1.5 7.3 0 9 0.3 9 1.5 0 1.2 1.6 1.5 8.5 1.5 6.7 0 8.6 0.3 9 1.5 0.4 1.1 2.2 1.5 7.5 1.5 5.6 0 7 0.3 7 1.5 0 1.2 1.7 1.5 9 1.5 7.3 0 9 0.3 9 1.5 0 1.2 1.3 1.5 6 1.5 4.7 0 6 0.3 6 1.5 0 1.2 1.4 1.5 7 1.5 5.6 0 7 0.3 7 1.5 0 1.2 1.3 1.5 6 1.5 4.7 0 6 0.3 6 1.5 0 1.2 1.5 1.5 7.5 1.5 6 0 7.5 0.3 7.5 1.5 0 1.2 1.3 1.5 5.5 1.5 4 0 5.6 0.4 6 1.5 0.4 1.1 2 1.5 6 1.5 4.2 0 5.5 0.3 5.5 1.5 0 1.2 1.3 1.5 6 1.5 3.3 0 6 0.4 6 1 0 0.6 3 1 7 1 5.6 0 7 0.3 7 1.5 0 1.1 1.2 1.5 4.5 1.5 3.3 0 4.5 0.4 4.5 1.5 0 1.2 1.5 1.5 7.5 1.5 6 0 7.5 0.3 7.5 1.5 0 1.1 1.1 1.5 4 1.5q4 0 4.5 1.5c0.4 1.1 2.2 1.5 7.5 1.5 5.6 0 7 0.3 7 1.5 0 1.2 1.3 1.5 6 1.5 4.7 0 6 0.3 6 1.5 0 1.2 1.3 1.5 6 1.5 4.7 0 6 0.3 6 1.5 0 1.1 1.1 1.5 4 1.5 2.9 0 4 0.4 4 1.5 0 1.2 1.5 1.5 7.5 1.5 6 0 7.5 0.3 7.5 1.5 0 1.2 1.3 1.5 6 1.5 4.7 0 6 0.3 6 1.5 0 1.2 1.3 1.5 6 1.5 4.7 0 6 0.3 6 1.5 0 1.2 1.3 1.5 5.5 1.5 4 0 5.6 0.4 6 1.5 0.4 1.1 2.2 1.5 7.5 1.5 5.6 0 7 0.3 7 1.5 0 1.2 1.3 1.5 6 1.5 3.3 0 6 0.4 6 1 0 0.5 2.5 1 5.5 1 4.2 0 5.5 0.3 5.5 1.5 0 1.2 1.3 1.5 6 1.5 4.7 0 6 0.3 6 1.5 0 1.2 1.4 1.5 7 1.5 5.3 0 7.1 0.4 7.5 1.5 0.4 1.1 2.2 1.5 7.5 1.5 5.6 0 7 0.3 7 1.5 0 1.2 1.3 1.5 6 1.5 4.7 0 6 0.3 6 1.5 0 1.2 1.7 1.5 9 1.5 7.3 0 9 0.3 9 1.5 0 1.2 1.4 1.5 7 1.5 5.6 0 7 0.3 7 1.5 0 1.2 1.5 1.5 7.5 1.5 6 0 7.5 0.3 7.5 1.5 0 1.2 1.8 1.5 10 1.5 8 0 10.1 0.3 10.5 1.5 0.4 1.2 2.3 1.5 9 1.5 6.9 0 8.5 0.3 8.5 1.5 0 1.2 1.9 1.5 11.5 1.5 9.3 0 11.6 0.3 12 1.5 0.4 1.2 2.5 1.5 10.5 1.5 8.2 0 10 0.3 10 1.5 0 1.3 2.6 1.5 17.5 1.5 14.7 0 17.6 0.2 18 1.5 0.4 1.3 6.1 1.5 42.5 1.5 36.7 0 42-0.2 42-1.5 0-1.3 2.1-1.5 13-1.5 10.9 0 13-0.2 13-1.5 0-1.3 2-1.5 12-1.5 10 0 12-0.3 12-1.5 0-1.2 1.4-1.5 7-1.5 5.3 0 7.1-0.4 7.5-1.5 0.4-1.1 2.2-1.5 7.5-1.5 5.6 0 7-0.3 7-1.5 0-1.2 1.5-1.5 7.5-1.5 6 0 7.5-0.3 7.5-1.5 0-1.1 1.2-1.5 4.5-1.5 3.3 0 4.5-0.4 4.5-1.5 0-1.1 1.1-1.5 4-1.5 2.9 0 4-0.4 4-1.5 0-1.1 1.2-1.5 4.5-1.5 3.3 0 4.5-0.4 4.5-1.5 0-1.1 1.2-1.5 4.5-1.5 3.3 0 4.5-0.4 4.5-1.5q0-1.5 3-1.5 3 0 3-1.5c0-1.1 1.2-1.5 4.5-1.5 3.3 0 4.5-0.4 4.5-1.5 0-1.1 1.1-1.5 4-1.5q4 0 4.5-1.5c0.3-0.8 1.6-1.5 3-1.5 1.4 0 2.5-0.5 2.5-1 0-0.5 1.3-1 3-1q3 0 3-1.5 0-1.5 3-1.5 3 0 3-1.5 0-1.5 3-1.5 3 0 3-1.5 0-1.5 3-1.5 3 0 3-1.5c0-0.9 0.9-1.5 2.5-1.5 1.4 0 2.7-0.7 3-1.5 0.3-0.8 1.6-1.5 3-1.5 1.6 0 2.5-0.6 2.5-1.5q0-1.5 3-1.5 3 0 3-1.5c0-0.8 0.7-1.5 1.5-1.5 0.8 0 1.5-0.7 1.5-1.5q0-1.5 3-1.5 3 0 3-1.5 0-1.5 3-1.5 3 0 3-1.5c0-0.8 0.7-1.5 1.5-1.5 0.8 0 1.5-0.7 1.5-1.5q0-1.5 3-1.5 3 0 3-1.5c0-0.8 0.7-1.5 1.5-1.5 0.8 0 1.5-0.7 1.5-1.5 0-0.8 0.7-1.5 1.5-1.5 0.8 0 1.5-0.5 1.5-1 0-0.5 1.1-1 2.5-1 1.6 0 2.5-0.6 2.5-1.5 0-0.8 0.7-1.5 1.5-1.5 0.8 0 1.5-0.7 1.5-1.5 0-0.8 0.7-1.5 1.5-1.5 0.8 0 1.5-0.7 1.5-1.5q0-1.5 3-1.5 3 0 3-1.5c0-0.8 0.7-1.5 1.5-1.5 0.8 0 1.5-0.7 1.5-1.5 0-0.8 0.7-1.5 1.5-1.5 0.8 0 1.5-0.7 1.5-1.5 0-0.8 0.7-1.5 1.5-1.5 0.8 0 1.5-0.7 1.5-1.5 0-0.8 0.7-1.5 1.5-1.5 0.8 0 1.5-0.7 1.5-1.5 0-0.8 0.7-1.5 1.5-1.5 0.8 0 1.5-0.7 1.5-1.5 0-0.8 0.7-1.5 1.5-1.5 0.8 0 1.5-0.7 1.5-1.5 0-0.8 0.7-1.5 1.5-1.5 0.8 0 1.5-0.7 1.5-1.5 0-0.8 0.7-1.5 1.5-1.5 0.8 0 1.5-0.7 1.5-1.5 0-0.8 0.7-1.5 1.5-1.5 0.8 0 1.5-0.7 1.5-1.5 0-0.8 0.9-1.5 2-1.5 1.1 0 3-1.1 4.3-2.5 1.2-1.3 2.8-2.4 3.5-2.5 0.7 0 1.2-1.3 1.2-3q0-3 1.5-3c0.8 0 1.5-0.7 1.5-1.5 0-0.8 0.7-1.5 1.5-1.5 0.8 0 1.5-0.7 1.5-1.5 0-0.8 0.7-1.5 1.5-1.5 0.8 0 1.5-0.7 1.5-1.5 0-0.8 0.7-1.5 1.5-1.5 0.8 0 1.5-0.7 1.5-1.5 0-0.8 0.7-1.5 1.5-1.5q1.5 0 1.5-3 0-3 1.5-3c0.8 0 1.5-0.7 1.5-1.5 0-0.8 0.7-1.5 1.5-1.5 0.8 0 1.5-0.7 1.5-1.5 0-0.8 0.7-1.5 1.5-1.5q1.5 0 1.5-3 0-3 1.5-3c0.8 0 1.5-0.7 1.5-1.5 0-0.8 0.7-1.5 1.5-1.5 0.9 0 1.5-0.9 1.5-2.5 0-1.4 0.4-2.5 1-2.5 0.6 0 1-0.7 1-1.5 0-0.8 0.7-1.5 1.5-1.5q1.5 0 1.5-3 0-3 1.5-3 1.5 0 1.5-3 0-3 1.5-3c0.8 0 1.5-0.7 1.5-1.5 0-0.8 0.7-1.5 1.5-1.5q1.5 0 1.5-3 0-3 1.5-3 1.5 0 1.5-3 0-3 1.5-3 1.5 0 1.5-3 0-3 1.5-3c0.9 0 1.5-0.9 1.5-2.5 0-1.6 0.6-2.5 1.5-2.5 1.1 0 1.5-1.2 1.5-4.5 0-3.3 0.4-4.5 1.5-4.5q1.5 0 1.5-3 0-3 1.5-3c1.1 0 1.5-1.2 1.5-4.5 0-3.3 0.4-4.5 1.5-4.5 1.2 0 1.5-1.3 1.5-6 0-4.7 0.3-6 1.5-6 1.1 0 1.5-1.1 1.5-4q0-4 1.5-4.5c1.1-0.4 1.5-2.2 1.5-7.5v-7c-5.7 0-6 0.3-6 3q0 3-1.5 3-1.5 0-1.5 3 0 3-1.5 3c-0.8 0-1.5 0.7-1.5 1.5 0 0.8-0.7 1.5-1.5 1.5-0.8 0-1.5 0.7-1.5 1.5 0 0.8-0.7 1.5-1.5 1.5-0.9 0-1.5 0.9-1.5 2.5 0 1.6-0.6 2.5-1.5 2.5-0.8 0-1.5 0.7-1.5 1.5 0 0.8-0.7 1.5-1.5 1.5q-1.5 0-1.5 3 0 3-1.5 3c-0.8 0-1.5 0.7-1.5 1.5 0 0.8-0.7 1.5-1.5 1.5-0.8 0-1.5 0.7-1.5 1.5 0 0.8-0.7 1.5-1.5 1.5-0.8 0-1.5 0.7-1.5 1.5 0 0.8-0.7 1.5-1.5 1.5-0.8 0-1.5 0.7-1.5 1.5 0 0.8-0.7 1.5-1.5 1.5-0.8 0-1.5 0.5-1.5 1 0 0.5-4 5-8.9 10-6.7 6.7-9.6 9-11.5 9-1.6 0-2.6 0.6-2.6 1.5 0 0.8-0.7 1.5-1.5 1.5-0.8 0-1.5 0.7-1.5 1.5 0 0.8-0.7 1.5-1.5 1.5-0.8 0-1.5 0.7-1.5 1.5 0 0.8-0.7 1.5-1.5 1.5-0.8 0-1.5 0.7-1.5 1.5q0 1.5-3 1.5c-1.7 0-3 0.5-3 1 0 0.5-1.1 2-2.5 3.2-1.3 1.3-2.4 2.9-2.5 3.5 0 0.8-1.3 1.3-3 1.3q-3 0-3 1.5 0 1.5-3 1.5-3 0-3 1.5 0 1.5-3 1.5-3 0-3 1.5 0 1.5-3 1.5-3 0-3 1.5 0 1.5-3 1.5-3 0-3 1.5 0 1.5-3 1.5-3 0-3 1.5c0 0.9-0.9 1.5-2.5 1.5-1.4 0-2.5 0.5-2.5 1 0 0.5-2 1-4.5 1-3.3 0-4.5 0.4-4.5 1.5 0 1.1-1.2 1.5-4.5 1.5-3.3 0-4.5 0.4-4.5 1.5 0 1.1-1.2 1.5-4.5 1.5-3.3 0-4.5 0.4-4.5 1.5 0 1.2-1.6 1.5-8.5 1.5-6.9 0-8.5 0.3-8.5 1.5 0 1.3-5.7 1.5-45.5 1.5-39.8 0-45.5-0.2-45.5-1.5 0-1.3-2.3-1.5-15-1.5-12.7 0-15-0.2-15-1.5 0-1.2-1.8-1.5-10-1.5-8.2 0-10-0.3-10-1.5 0-1.2-1.9-1.5-11.5-1.5-9.3 0-11.6-0.3-12-1.5-0.4-1.2-2.3-1.5-9-1.5-5 0-8.5-0.4-8.5-1 0-0.6-3.5-1-8.5-1-6.7 0-8.6-0.3-9-1.5-0.4-1.1-2-1.5-6-1.5-4.2 0-5.5-0.3-5.5-1.5 0-1.2-1.5-1.5-7.5-1.5-6 0-7.5-0.3-7.5-1.5 0-1.2-1.5-1.5-7.5-1.5-6 0-7.5-0.3-7.5-1.5 0-1.2-1.3-1.5-5.5-1.5-4.2 0-5.5-0.3-5.5-1.5 0-1.2-1.3-1.5-6-1.5-4.7 0-6-0.3-6-1.5 0-1.2-1.5-1.5-7.5-1.5-6 0-7.5-0.3-7.5-1.5 0-1.2-1.3-1.5-5.5-1.5-4 0-5.6-0.4-6-1.5-0.4-1.1-2-1.5-6-1.5-4.2 0-5.5-0.3-5.5-1.5 0-1.1-1.2-1.5-4.5-1.5-3.3 0-4.5-0.4-4.5-1.5 0-1.2-1.5-1.5-7.5-1.5-6 0-7.5-0.3-7.5-1.5 0-1.1-1.1-1.5-4-1.5q-4 0-4.5-1.5c-0.4-1.1-2-1.5-6-1.5-4 0-5.6-0.4-6-1.5q-0.5-1.5-4.5-1.5c-2.2 0-4-0.5-4-1 0-0.5-2.5-1-5.5-1-4 0-5.6-0.4-6-1.5q-0.5-1.5-4.5-1.5c-2.9 0-4-0.4-4-1.5 0-1.2-1.5-1.5-7.5-1.5-6 0-7.5-0.3-7.5-1.5 0-1.1-1.2-1.5-4.5-1.5-3.3 0-4.5-0.4-4.5-1.5 0-1.1-1.2-1.5-4.5-1.5-3.3 0-4.5-0.4-4.5-1.5 0-1.2-1.3-1.5-5.5-1.5-4.2 0-5.5-0.3-5.5-1.5 0-1.1-1.2-1.5-4.5-1.5-3.3 0-4.5-0.4-4.5-1.5 0-1.1-1.2-1.5-4.5-1.5-3.3 0-4.5-0.4-4.5-1.5 0-1.2-1.3-1.5-6-1.5-4.7 0-6-0.3-6-1.5 0-1.2-1.3-1.5-5.5-1.5-4 0-5.6-0.4-6-1.5-0.4-1.1-2-1.5-6-1.5-4.2 0-5.5-0.3-5.5-1.5 0-1.1-1.2-1.5-4.5-1.5-3.3 0-4.5-0.4-4.5-1.5 0-1.2-1.3-1.5-6-1.5-4.7 0-6-0.3-6-1.5 0-1.1-1.1-1.5-4-1.5-2.2 0-4-0.5-4-1 0-0.6-2.7-1-6-1-4.7 0-6-0.3-6-1.5 0-1.2-1.3-1.5-5.5-1.5-4 0-5.6-0.4-6-1.5-0.4-1.1-2-1.5-6-1.5-4 0-5.6-0.4-6-1.5q-0.5-1.5-4.5-1.5c-2.9 0-4-0.4-4-1.5 0-1.2-1.5-1.5-7.5-1.5-6 0-7.5-0.3-7.5-1.5 0-1.2-1.3-1.5-6-1.5-4.7 0-6-0.3-6-1.5 0-1.2-1.3-1.5-5.5-1.5-4.2 0-5.5-0.3-5.5-1.5 0-1.2-1.3-1.5-6-1.5-4.7 0-6-0.3-6-1.5 0-1.2-1.5-1.5-7.5-1.5-6 0-7.5-0.3-7.5-1.5 0-1.2-1.4-1.5-7-1.5-5.3 0-7.1-0.4-7.5-1.5-0.4-1.1-2.2-1.5-7.5-1.5-5.6 0-7-0.3-7-1.5 0-1.2-1.5-1.5-7.5-1.5-6 0-7.5-0.3-7.5-1.5 0-1.2-1.6-1.5-8.5-1.5-6.7 0-8.6-0.3-9-1.5-0.4-1.1-2.2-1.5-7.5-1.5-4 0-7-0.4-7-1 0-0.6-4-1-10-1-8.2 0-10-0.3-10-1.5 0-1.2-1.8-1.5-10.5-1.5-8.7 0-10.5-0.3-10.5-1.5 0-1.3-2.3-1.5-14.5-1.5-12.2 0-14.5-0.2-14.5-1.5 0-1.3-3.4-1.5-25-1.5-21.6 0-25-0.2-25-1.5 0-1.3-3.9-1.5-29.5-1.5-25.6 0-29.5 0.2-29.5 1.5z" fill="#1c1313"/>
    </g>

    <g id="react">
        <path d="M14.313 22.211c0.55 0.025 1.112 0.043 1.681 0.043 0.575 0 1.143-0.012 1.7-0.043-0.557 0.72-1.107 1.357-1.689 1.964l0.008-0.008c-0.579-0.6-1.135-1.238-1.659-1.902l-0.041-0.054zM8.615 21.411c1.083 0.275 2.404 0.509 3.752 0.653l0.131 0.011c0.825 1.133 1.659 2.13 2.554 3.068l-0.011-0.012c-1.311 1.463-3.080 2.491-5.081 2.86l-0.055 0.008c-0.004 0-0.008 0-0.012 0-0.248 0-0.482-0.061-0.687-0.169l0.008 0.004c-0.832-0.475-1.193-2.292-0.912-4.627 0.067-0.575 0.177-1.18 0.312-1.797zM23.398 21.398c0.118 0.474 0.229 1.078 0.308 1.692l0.009 0.086c0.287 2.334-0.067 4.149-0.892 4.634-0.184 0.102-0.404 0.162-0.638 0.162-0.023 0-0.046-0.001-0.069-0.002l0.003 0c-2.053-0.375-3.821-1.396-5.129-2.841l-0.007-0.008c0.879-0.923 1.707-1.918 2.466-2.965l0.058-0.084c1.476-0.154 2.799-0.392 4.088-0.717l-0.197 0.042zM9.784 17.666c0.25 0.49 0.512 0.978 0.8 1.468q0.431 0.731 0.881 1.428c-0.868-0.127-1.706-0.287-2.507-0.482 0.225-0.787 0.507-1.602 0.825-2.416zM22.212 17.641c0.331 0.821 0.612 1.64 0.845 2.434-0.8 0.196-1.645 0.362-2.519 0.487 0.3-0.469 0.6-0.952 0.881-1.447 0.281-0.487 0.544-0.985 0.795-1.475zM7.619 12.292c0.436 1.478 0.904 2.714 1.449 3.906l-0.075-0.182c-0.466 1.005-0.927 2.234-1.305 3.499l-0.052 0.205c-0.706-0.217-1.274-0.43-1.827-0.669l0.115 0.044c-2.164-0.921-3.564-2.132-3.564-3.092s1.4-2.177 3.564-3.094c0.525-0.225 1.1-0.428 1.694-0.617zM24.358 12.287c0.605 0.187 1.18 0.396 1.718 0.622 2.164 0.925 3.564 2.134 3.564 3.094-0.006 0.96-1.406 2.174-3.57 3.093-0.525 0.225-1.1 0.427-1.693 0.616-0.44-1.483-0.908-2.718-1.451-3.912l0.076 0.188c0.464-1.004 0.926-2.233 1.303-3.498l0.053-0.206zM20.53 11.444c0.869 0.129 1.706 0.287 2.507 0.484-0.225 0.79-0.506 1.602-0.825 2.416-0.25-0.487-0.512-0.978-0.8-1.467-0.281-0.49-0.581-0.967-0.881-1.432zM11.458 11.444c-0.3 0.471-0.6 0.953-0.88 1.45-0.281 0.487-0.544 0.977-0.794 1.467-0.331-0.82-0.612-1.637-0.845-2.433 0.8-0.187 1.643-0.354 2.518-0.482zM16 11.126c0.925 0 1.846 0.042 2.752 0.116q0.761 1.091 1.478 2.324 0.697 1.2 1.272 2.432c-0.385 0.819-0.807 1.637-1.266 2.437-0.475 0.825-0.966 1.61-1.475 2.337-0.91 0.079-1.832 0.122-2.762 0.122-0.925 0-1.846-0.044-2.752-0.116-0.507-0.727-1.002-1.505-1.478-2.324q-0.697-1.2-1.272-2.432c0.379-0.821 0.807-1.641 1.266-2.442 0.475-0.825 0.966-1.607 1.475-2.334 0.91-0.080 1.832-0.122 2.762-0.122zM15.981 7.845c0.58 0.6 1.136 1.237 1.659 1.901l0.040 0.053c-0.55-0.025-1.112-0.042-1.681-0.042-0.575 0-1.143 0.012-1.7 0.042 0.556-0.72 1.106-1.357 1.689-1.964l-0.008 0.008zM9.88 4.033c2.053 0.376 3.82 1.397 5.129 2.841l0.007 0.008c-0.879 0.924-1.707 1.919-2.466 2.968l-0.058 0.084c-1.475 0.153-2.798 0.389-4.086 0.714l0.196-0.042c-0.14-0.612-0.244-1.205-0.317-1.774-0.287-2.334 0.067-4.149 0.892-4.632 0.206-0.097 0.447-0.157 0.701-0.165l0.003-0zM22.090 4.008v0.008c0.013-0 0.028-0.001 0.044-0.001 0.239 0 0.464 0.059 0.662 0.163l-0.008-0.004c0.832 0.477 1.193 2.293 0.912 4.629-0.067 0.575-0.177 1.181-0.312 1.799-1.085-0.278-2.406-0.513-3.754-0.656l-0.128-0.011c-0.826-1.134-1.66-2.131-2.555-3.070l0.012 0.012c1.311-1.46 3.077-2.488 5.074-2.859l0.056-0.009zM22.096 2.646c-2.442 0.371-4.556 1.557-6.1 3.268l-0.008 0.009c-1.555-1.71-3.669-2.888-6.051-3.245l-0.056-0.007c-0.013-0-0.029-0-0.045-0-0.491 0-0.952 0.129-1.351 0.355l0.014-0.007c-1.718 0.991-2.103 4.079-1.216 7.954-3.804 1.175-6.278 3.053-6.278 5.032 0 1.987 2.487 3.87 6.302 5.036-0.88 3.89-0.487 6.983 1.235 7.973 0.378 0.217 0.832 0.344 1.315 0.344 0.022 0 0.044-0 0.065-0.001l-0.003 0c2.442-0.371 4.556-1.558 6.1-3.27l0.008-0.009c1.555 1.711 3.669 2.889 6.051 3.246l0.056 0.007c0.015 0 0.034 0 0.052 0 0.488 0 0.947-0.128 1.344-0.351l-0.014 0.007c1.717-0.99 2.103-4.078 1.216-7.954 3.79-1.165 6.264-3.047 6.264-5.029 0-1.987-2.487-3.87-6.302-5.039 0.88-3.886 0.487-6.982-1.235-7.973-0.382-0.219-0.84-0.348-1.328-0.348-0.013 0-0.026 0-0.039 0l0.002-0zM18.787 16.005c0 1.543-1.251 2.794-2.794 2.794s-2.794-1.251-2.794-2.794c0-1.543 1.251-2.794 2.794-2.794 0.772 0 1.47 0.313 1.976 0.818v0c0.506 0.506 0.818 1.204 0.818 1.976 0 0 0 0 0 0v0z" fill="#1c1313"></path>
    </g>

    <g id="redux">
        <path d="m17.54 16.745c.893-.089 1.585-.837 1.585-1.746 0-.036-.001-.072-.003-.108v.005c-.047-.963-.834-1.726-1.801-1.736h-.065c-.968.036-1.739.829-1.739 1.802 0 .022 0 .044.001.067v-.003c.026.473.22.897.522 1.217l-.001-.001c-1.187 2.214-3.001 3.96-5.204 5.031l-.069.03c-1.192.66-2.614 1.048-4.127 1.048-.383 0-.761-.025-1.13-.073l.044.005c-1.361-.131-2.533-.844-3.277-1.884l-.009-.014c-.537-.755-.858-1.695-.858-2.711 0-.837.218-1.623.601-2.305l-.012.024c.547-1.036 1.293-1.898 2.194-2.562l.021-.014c-.171-.453-.324-.999-.432-1.56l-.011-.066c-4.683 3.349-4.208 7.93-2.786 10.095 1.243 1.586 3.159 2.596 5.311 2.596.098 0 .195-.002.292-.006h-.014c.035.001.077.001.119.001.647 0 1.276-.075 1.88-.216l-.056.011c4.008-.734 7.29-3.317 8.974-6.814l.032-.074z" fill="#1c1313"/>
        <path d="m23.18 12.799c-2.403-2.74-5.91-4.46-9.82-4.46-.119 0-.239.002-.357.005h.018-.538c-.283-.567-.86-.95-1.526-.95-.02 0-.039 0-.059.001h.003-.039c-.966.014-1.744.8-1.744 1.768 0 .029.001.057.002.085v-.004c.045.963.832 1.728 1.8 1.738h.079c.714-.028 1.317-.472 1.577-1.094l.004-.012h.585c2.554.003 4.924.787 6.884 2.128l-.042-.027c1.531.98 2.713 2.388 3.392 4.055l.021.058c.26.542.411 1.178.411 1.849 0 .71-.169 1.38-.47 1.972l.011-.025c-.777 1.586-2.379 2.658-4.231 2.658-.068 0-.135-.001-.202-.004h.01c-1.137-.024-2.21-.274-3.183-.707l.052.021c-.379.316-1.011.836-1.47 1.153 1.214.596 2.638.959 4.143.994h.012c.059.002.128.003.197.003 2.552 0 4.787-1.355 6.026-3.384l.018-.031c.342-.811.54-1.753.54-2.742 0-1.98-.796-3.774-2.085-5.079l.001.001-.015.032z" fill="#1c1313"/>
        <path d="m6.844 17.316c.044.964.833 1.731 1.803 1.738h.064c.968-.033 1.741-.827 1.741-1.8 0-.99-.799-1.794-1.788-1.801h-.067c-.01-.001-.022-.001-.033-.001-.073 0-.143.011-.209.033l.005-.001c-1.07-1.741-1.703-3.85-1.703-6.107 0-.364.016-.724.049-1.079l-.003.046c.091-1.906.791-3.633 1.907-5.007l-.012.016c.991-1.071 2.387-1.753 3.944-1.803h.009c3.412-.064 4.835 4.188 4.945 5.878l1.582.473c-.368-5.181-3.59-7.901-6.671-7.901-3.132.163-5.731 2.27-6.622 5.131l-.014.052c-.438 1.262-.692 2.716-.692 4.229 0 2.588.741 5.003 2.021 7.044l-.032-.055c-.143.216-.228.481-.228.766 0 .053.003.105.009.156l-.001-.006z" fill="#1c1313"/>
    </g>

    <g id="js">
        <path fill-rule="nonzero" clip-rule="nonzero"
              d="M0 1.75C0 0.783501 0.783502 0 1.75 0H14.25C15.2165 0 16 0.783502 16 1.75V3.75C16 4.16421 15.6642 4.5 15.25 4.5C14.8358 4.5 14.5 4.16421 14.5 3.75V1.75C14.5 1.61193 14.3881 1.5 14.25 1.5H1.75C1.61193 1.5 1.5 1.61193 1.5 1.75V14.25C1.5 14.3881 1.61193 14.5 1.75 14.5H15.25C15.6642 14.5 16 14.8358 16 15.25C16 15.6642 15.6642 16 15.25 16H1.75C0.783501 16 0 15.2165 0 14.25V1.75ZM8.25 5.75C8.66421 5.75 9 6.08579 9 6.5V10.5C9 11.5048 8.72399 12.2584 8.15514 12.7324C7.61223 13.1848 6.95384 13.25 6.5 13.25C6.08579 13.25 5.75 12.9142 5.75 12.5C5.75 12.0858 6.08579 11.75 6.5 11.75C6.84617 11.75 7.06277 11.6902 7.19486 11.5801C7.301 11.4916 7.5 11.2452 7.5 10.5V6.5C7.5 6.08579 7.83578 5.75 8.25 5.75ZM11.2757 6.58011C11.6944 6.08164 12.3507 5.75 13.25 5.75C14.0849 5.75 14.7148 6.03567 15.1394 6.48481C15.4239 6.78583 15.4105 7.26052 15.1095 7.54505C14.8085 7.82958 14.3338 7.81621 14.0493 7.51519C13.9394 7.39898 13.7204 7.25 13.25 7.25C12.7493 7.25 12.5306 7.41836 12.4243 7.54489C12.2934 7.70065 12.25 7.896 12.25 8C12.25 8.104 12.2934 8.29935 12.4243 8.45511C12.5306 8.58164 12.7493 8.75 13.25 8.75C13.3257 8.75 13.3988 8.76121 13.4676 8.78207C14.1307 8.87646 14.6319 9.17251 14.9743 9.58011C15.3684 10.0493 15.5 10.604 15.5 11C15.5 11.396 15.3684 11.9507 14.9743 12.4199C14.5556 12.9184 13.8993 13.25 13 13.25C12.1651 13.25 11.5352 12.9643 11.1106 12.5152C10.8261 12.2142 10.8395 11.7395 11.1405 11.4549C11.4415 11.1704 11.9162 11.1838 12.2007 11.4848C12.3106 11.601 12.5296 11.75 13 11.75C13.5007 11.75 13.7194 11.5816 13.8257 11.4551C13.9566 11.2993 14 11.104 14 11C14 10.896 13.9566 10.7007 13.8257 10.5449C13.7194 10.4184 13.5007 10.25 13 10.25C12.9243 10.25 12.8512 10.2388 12.7824 10.2179C12.1193 10.1235 11.6181 9.82749 11.2757 9.41989C10.8816 8.95065 10.75 8.396 10.75 8C10.75 7.604 10.8816 7.04935 11.2757 6.58011Z"
              fill="#1c1313"/>
    </g>

    <g id="ts">
        <path fill-rule="nonzero" clip-rule="nonzero"
              d="M0 1.75C0 0.783501 0.783502 0 1.75 0H14.25C15.2165 0 16 0.783502 16 1.75V3.75C16 4.16421 15.6642 4.5 15.25 4.5C14.8358 4.5 14.5 4.16421 14.5 3.75V1.75C14.5 1.61193 14.3881 1.5 14.25 1.5H1.75C1.61193 1.5 1.5 1.61193 1.5 1.75V14.25C1.5 14.3881 1.61193 14.5 1.75 14.5H15.25C15.6642 14.5 16 14.8358 16 15.25C16 15.6642 15.6642 16 15.25 16H1.75C0.783501 16 0 15.2165 0 14.25V1.75ZM4.75 6.5C4.75 6.08579 5.08579 5.75 5.5 5.75H9.25C9.66421 5.75 10 6.08579 10 6.5C10 6.91421 9.66421 7.25 9.25 7.25H8.25V12.5C8.25 12.9142 7.91421 13.25 7.5 13.25C7.08579 13.25 6.75 12.9142 6.75 12.5V7.25H5.5C5.08579 7.25 4.75 6.91421 4.75 6.5ZM11.2757 6.58011C11.6944 6.08164 12.3507 5.75 13.25 5.75C14.0849 5.75 14.7148 6.03567 15.1394 6.48481C15.4239 6.78583 15.4105 7.26052 15.1095 7.54505C14.8085 7.82958 14.3338 7.81621 14.0493 7.51519C13.9394 7.39898 13.7204 7.25 13.25 7.25C12.7493 7.25 12.5306 7.41836 12.4243 7.54489C12.2934 7.70065 12.25 7.896 12.25 8C12.25 8.104 12.2934 8.29935 12.4243 8.45511C12.5306 8.58164 12.7493 8.75 13.25 8.75C13.3257 8.75 13.3988 8.76121 13.4676 8.78207C14.1307 8.87646 14.6319 9.17251 14.9743 9.58011C15.3684 10.0493 15.5 10.604 15.5 11C15.5 11.396 15.3684 11.9507 14.9743 12.4199C14.5556 12.9184 13.8993 13.25 13 13.25C12.1651 13.25 11.5352 12.9643 11.1106 12.5152C10.8261 12.2142 10.8395 11.7395 11.1405 11.4549C11.4415 11.1704 11.9162 11.1838 12.2007 11.4848C12.3106 11.601 12.5296 11.75 13 11.75C13.5007 11.75 13.7194 11.5816 13.8257 11.4551C13.9566 11.2993 14 11.104 14 11C14 10.896 13.9566 10.7007 13.8257 10.5449C13.7194 10.4184 13.5007 10.25 13 10.25C12.9243 10.25 12.8512 10.2388 12.7824 10.2179C12.1193 10.1235 11.6181 9.82749 11.2757 9.41989C10.8816 8.95065 10.75 8.396 10.75 8C10.75 7.604 10.8816 7.04935 11.2757 6.58011Z"
              fill="#1c1313"/>
    </g>

    <g id="">
        <path d="m17.54 16.745c.893-.089 1.585-.837 1.585-1.746 0-.036-.001-.072-.003-.108v.005c-.047-.963-.834-1.726-1.801-1.736h-.065c-.968.036-1.739.829-1.739 1.802 0 .022 0 .044.001.067v-.003c.026.473.22.897.522 1.217l-.001-.001c-1.187 2.214-3.001 3.96-5.204 5.031l-.069.03c-1.192.66-2.614 1.048-4.127 1.048-.383 0-.761-.025-1.13-.073l.044.005c-1.361-.131-2.533-.844-3.277-1.884l-.009-.014c-.537-.755-.858-1.695-.858-2.711 0-.837.218-1.623.601-2.305l-.012.024c.547-1.036 1.293-1.898 2.194-2.562l.021-.014c-.171-.453-.324-.999-.432-1.56l-.011-.066c-4.683 3.349-4.208 7.93-2.786 10.095 1.243 1.586 3.159 2.596 5.311 2.596.098 0 .195-.002.292-.006h-.014c.035.001.077.001.119.001.647 0 1.276-.075 1.88-.216l-.056.011c4.008-.734 7.29-3.317 8.974-6.814l.032-.074z" fill="#1c1313"/>
        <path d="m23.18 12.799c-2.403-2.74-5.91-4.46-9.82-4.46-.119 0-.239.002-.357.005h.018-.538c-.283-.567-.86-.95-1.526-.95-.02 0-.039 0-.059.001h.003-.039c-.966.014-1.744.8-1.744 1.768 0 .029.001.057.002.085v-.004c.045.963.832 1.728 1.8 1.738h.079c.714-.028 1.317-.472 1.577-1.094l.004-.012h.585c2.554.003 4.924.787 6.884 2.128l-.042-.027c1.531.98 2.713 2.388 3.392 4.055l.021.058c.26.542.411 1.178.411 1.849 0 .71-.169 1.38-.47 1.972l.011-.025c-.777 1.586-2.379 2.658-4.231 2.658-.068 0-.135-.001-.202-.004h.01c-1.137-.024-2.21-.274-3.183-.707l.052.021c-.379.316-1.011.836-1.47 1.153 1.214.596 2.638.959 4.143.994h.012c.059.002.128.003.197.003 2.552 0 4.787-1.355 6.026-3.384l.018-.031c.342-.811.54-1.753.54-2.742 0-1.98-.796-3.774-2.085-5.079l.001.001-.015.032z" fill="#1c1313"/>
        <path d="m6.844 17.316c.044.964.833 1.731 1.803 1.738h.064c.968-.033 1.741-.827 1.741-1.8 0-.99-.799-1.794-1.788-1.801h-.067c-.01-.001-.022-.001-.033-.001-.073 0-.143.011-.209.033l.005-.001c-1.07-1.741-1.703-3.85-1.703-6.107 0-.364.016-.724.049-1.079l-.003.046c.091-1.906.791-3.633 1.907-5.007l-.012.016c.991-1.071 2.387-1.753 3.944-1.803h.009c3.412-.064 4.835 4.188 4.945 5.878l1.582.473c-.368-5.181-3.59-7.901-6.671-7.901-3.132.163-5.731 2.27-6.622 5.131l-.014.052c-.438 1.262-.692 2.716-.692 4.229 0 2.588.741 5.003 2.021 7.044l-.032-.055c-.143.216-.228.481-.228.766 0 .053.003.105.009.156l-.001-.006z" fill="#1c1313"/>
    </g>

    <g id="rest-api">
        <path id="Vector" fill-rule="evenodd" clip-rule="evenodd"
              d="M36.2548 10.2105L37.0474 11.271C37.2554 11.5508 37.2034 11.952 36.928 12.1635L36.0864 12.8134C36.2394 13.227 36.3373 13.6686 36.3771 14.1195L37.335 14.2533C37.6776 14.2999 37.9164 14.6233 37.8705 14.9716L37.693 16.2933C37.6471 16.6416 37.3289 16.8872 36.9861 16.8375L35.9396 16.6913C35.7528 17.1049 35.5142 17.4843 35.2327 17.8233L35.8202 18.607C36.0282 18.8868 35.9733 19.288 35.6978 19.4995L34.6543 20.3049C34.3789 20.5164 33.9842 20.4604 33.7762 20.1836L33.1365 19.3284C32.7265 19.4839 32.295 19.5834 31.8482 19.6239L31.7166 20.5972C31.6707 20.9455 31.3525 21.1881 31.0097 21.1414L29.7093 20.9611C29.3665 20.9144 29.1279 20.591 29.1738 20.2427L29.3176 19.1792C28.9137 18.9895 28.5372 18.7469 28.2037 18.4639L27.4326 19.0579C27.1572 19.2693 26.7624 19.2165 26.5543 18.9366L25.7617 17.8762C25.5537 17.5963 25.6057 17.1951 25.8811 16.9836L26.7226 16.3337C26.5697 15.917 26.4717 15.4785 26.432 15.0276L25.4741 14.8939C25.1315 14.8472 24.8896 14.5238 24.9386 14.1755L25.1161 12.8538C25.165 12.5056 25.4802 12.263 25.823 12.3096L26.8695 12.4558C27.0561 12.0453 27.2949 11.6628 27.5733 11.3238L26.9889 10.5402C26.7807 10.2634 26.8329 9.86223 27.1081 9.65077L28.1517 8.84533C28.4271 8.63386 28.8219 8.68673 29.03 8.96661L29.6695 9.82179C30.0765 9.66632 30.5109 9.5668 30.9548 9.52637L31.0864 8.55301C31.1323 8.20471 31.4505 7.95904 31.7932 8.00568L33.0937 8.18605C33.4364 8.2327 33.6781 8.55612 33.6292 8.90441L33.4854 9.96796C33.8924 10.1577 34.2657 10.4002 34.6023 10.6863L35.3734 10.0924C35.6488 9.87778 36.0436 9.93064 36.2548 10.2105ZM13.8795 28.8723V23.7412H16.4805C16.9641 23.7412 17.3312 23.7817 17.5853 23.8687C17.8393 23.9528 18.0473 24.1081 18.2004 24.3353C18.3564 24.5653 18.436 24.8421 18.436 25.1686C18.436 25.4516 18.3748 25.7004 18.2554 25.9056C18.136 26.114 17.9709 26.2819 17.7628 26.4094C17.6312 26.4903 17.4476 26.5587 17.215 26.6116C17.4017 26.6769 17.5363 26.7359 17.6188 26.8012C17.6771 26.8448 17.7597 26.9351 17.8669 27.0718C17.9739 27.2087 18.0473 27.3174 18.084 27.3921L18.8429 28.8755H17.0804L16.248 27.3112C16.1409 27.1092 16.0491 26.9755 15.9665 26.9163C15.8532 26.8386 15.7248 26.7982 15.5839 26.7982H15.4462V28.8755H13.8795V28.8723ZM19.3815 37.8068H16.4683L16.0491 39.2H13.4236L16.554 30.7445H19.3693L22.4876 39.2H19.7946L19.3815 37.8068ZM18.8368 35.9751L17.928 32.9337L17.0162 35.9751H18.8368ZM23.0934 30.7445H27.3713C28.3047 30.7445 29.0024 30.9685 29.4644 31.4193C29.9266 31.8702 30.159 32.514 30.159 33.3443C30.159 34.1994 29.9051 34.8681 29.4002 35.3501C28.8952 35.8321 28.1211 36.0716 27.0837 36.0716H25.6731V39.2H23.0934V30.7445ZM25.6731 34.3581H26.3065C26.8053 34.3581 27.1572 34.271 27.3591 34.0937C27.5611 33.9196 27.6621 33.6926 27.6621 33.4219C27.6621 33.1577 27.5733 32.9307 27.3989 32.7472C27.2245 32.5636 26.894 32.4704 26.4105 32.4704H25.6731V34.3581ZM31.1995 30.7445H33.7791V39.2H31.1995V30.7445ZM15.4462 25.8247H16.1042C16.1745 25.8247 16.3123 25.7999 16.5173 25.7533C16.6214 25.7315 16.7071 25.6786 16.7713 25.5915C16.8387 25.5045 16.8692 25.405 16.8692 25.2931C16.8692 25.1282 16.8172 24.9976 16.7132 24.9106C16.6091 24.8203 16.4163 24.7768 16.1318 24.7768H15.4462V25.8247ZM19.1429 23.7412H23.3198V24.8359H20.7096V25.6538H23.1301V26.6987H20.7096V27.7093H23.3964V28.8693H19.1429V23.7412ZM23.7666 27.1745L25.2477 27.0812C25.2783 27.3268 25.3456 27.5103 25.4436 27.6379C25.6057 27.843 25.8352 27.9487 26.1321 27.9487C26.3524 27.9487 26.5267 27.8959 26.6461 27.7902C26.7655 27.6845 26.8266 27.56 26.8266 27.4201C26.8266 27.2864 26.7685 27.1683 26.6554 27.0626C26.5421 26.9567 26.2759 26.8604 25.8567 26.7639C25.1742 26.6084 24.6876 26.4 24.3939 26.142C24.1001 25.8838 23.9533 25.5543 23.9533 25.153C23.9533 24.8888 24.0298 24.6399 24.1797 24.4067C24.3297 24.1735 24.556 23.987 24.859 23.8532C25.162 23.7195 25.5751 23.6542 26.1014 23.6542C26.7472 23.6542 27.2368 23.7754 27.5764 24.021C27.9129 24.2668 28.115 24.6524 28.1793 25.1872L26.7135 25.2775C26.6737 25.0443 26.591 24.8731 26.4686 24.7706C26.3431 24.6648 26.1688 24.6119 25.9515 24.6119C25.771 24.6119 25.6333 24.6524 25.5415 24.7302C25.4497 24.8079 25.4038 24.9044 25.4038 25.0163C25.4038 25.0971 25.4435 25.1686 25.517 25.237C25.5903 25.3023 25.7617 25.3676 26.0372 25.4268C26.7196 25.5759 27.2092 25.7284 27.5029 25.8808C27.7967 26.0331 28.014 26.2229 28.1456 26.4499C28.2802 26.6738 28.3475 26.9287 28.3475 27.2087C28.3475 27.5382 28.2588 27.8399 28.0782 28.1167C27.9007 28.3935 27.6499 28.6049 27.3286 28.748C27.0072 28.8911 26.6034 28.9626 26.1136 28.9626C25.2568 28.9626 24.6602 28.7946 24.3297 28.4588C23.9992 28.1167 23.8125 27.6907 23.7666 27.1745ZM28.5739 23.7412H33.3201V25.01H31.7288V28.8723H30.1683V25.01H28.5739V23.7412ZM23.3229 11.5633C22.7628 11.5197 22.1968 11.526 21.6369 11.582C19.914 11.7499 18.2402 12.3874 16.857 13.4789C15.2565 14.7384 14.0417 16.6229 13.5736 19.1201L13.4266 19.9006L12.6616 20.0375C11.912 20.1712 11.2417 20.3547 10.6542 20.5879C10.0851 20.8118 9.57701 21.0886 9.13333 21.4151C8.77832 21.6763 8.47235 21.9686 8.21229 22.2858C7.40749 23.2654 7.03416 24.4938 7.0434 25.7377C7.05249 27.0003 7.45637 28.2752 8.20304 29.3233C8.4816 29.712 8.80292 30.0697 9.17015 30.3806C9.54348 30.6947 9.96256 30.9559 10.4338 31.1518C10.7002 31.2637 10.9847 31.3572 11.2815 31.4317V33.761C10.6694 33.6489 10.1064 33.4812 9.58014 33.2602C8.88548 32.968 8.27041 32.5916 7.72882 32.1314C7.21464 31.6961 6.76485 31.2017 6.38243 30.6636C5.36331 29.2332 4.81247 27.4854 4.80025 25.7439C4.78803 23.9838 5.32665 22.233 6.48943 20.8149C6.8659 20.3547 7.30958 19.9317 7.81749 19.5585C8.40812 19.1232 9.08445 18.7562 9.84945 18.4546C10.3757 18.2462 10.9388 18.0721 11.5325 17.9321C12.2057 15.2142 13.6408 13.1213 15.486 11.669C17.212 10.31 19.2897 9.51704 21.4287 9.30869C22.5518 9.19984 23.6901 9.2496 24.804 9.46107C24.7794 9.56369 24.7581 9.66632 24.7458 9.77205L24.7428 9.7907C24.7213 9.96796 24.7122 10.1452 24.7213 10.3256C24.4857 10.4189 24.2654 10.5464 24.0665 10.7019L24.0574 10.7081C23.7605 10.9351 23.5095 11.2274 23.3229 11.5633ZM39.5138 17.5341C39.6851 17.6927 39.8503 17.8575 40.0126 18.0348C40.3399 18.3924 40.649 18.7967 40.9397 19.2476C41.9189 20.7776 42.4209 22.8207 42.3994 24.8203C42.3779 26.7826 41.8578 28.7356 40.7928 30.1722C40.0981 31.1084 39.2078 31.8733 38.1398 32.4797C37.4083 32.8965 36.5852 33.2416 35.6886 33.5216V31.1114C36.1721 30.928 36.622 30.7227 37.0351 30.4895C37.8399 30.0323 38.4978 29.4756 38.9905 28.8071C39.7555 27.7716 40.1318 26.3068 40.1472 24.8047C40.1655 23.2281 39.786 21.6452 39.0486 20.4946C38.8374 20.1619 38.6049 19.8633 38.3601 19.5959C38.2653 19.4933 38.1703 19.3968 38.0724 19.3036C38.0878 19.1481 38.0939 18.9895 38.0846 18.8309C38.3203 18.7376 38.5405 18.6101 38.7395 18.4546L38.7488 18.4484C39.0638 18.2027 39.327 17.8917 39.5138 17.5341ZM31.7534 11.98C33.1641 12.1759 34.1493 13.4976 33.9566 14.9312C33.7638 16.3648 32.4633 17.3693 31.0527 17.1733C29.6419 16.9774 28.6535 15.6558 28.8493 14.2222C29.0452 12.7885 30.3427 11.7841 31.7534 11.98Z"
              fill="#1c1313"/>
    </g>

    <g id="html">
        <path display="inline" d="M108.669,0.501h23.032v22.756h21.069V0.501h23.034V69.41h-23.032V46.334h-21.069V69.41h-23.032V0.501
		H108.669z M206.091,23.353h-20.275V0.501h63.594v22.852h-20.285V69.41h-23.032V23.353H206.091z M259.502,0.501h24.02l14.771,24.213
		l14.759-24.213h24.023V69.41h-22.938V35.256l-15.845,24.5h-0.395l-15.856-24.5V69.41h-22.539V0.501z M348.54,0.501h23.038v46.133
		h32.391V69.41H348.54V0.501z M74.987,100.926l32.946,369.533l147.844,41.04L404.031,470.4l32.981-369.475H74.987z M368.289,188.62
		l-2.063,22.977l-0.906,10.188h-0.149H256h-0.158h-63.956l4.142,46.407h59.814H256h92.98h12.214l-1.106,12.172l-10.65,119.32
		l-0.682,7.652L256,433.045v0.008l-0.208,0.059l-92.839-25.774l-6.351-71.161h20.97h24.527l3.227,36.146l50.474,13.632l0.042-0.013
		v-0.004l50.551-13.64l5.257-58.781H256h-0.158H154.578L143.439,188.62l-1.085-12.157h113.488H256h113.374L368.289,188.62z" fill="#1c1313">
        </path>
    </g>

    <g id="css">
        <path display="inline" d="M204.064,46.682v22.018h-56.302V0.501h56.302v24.13h-32.172v22.051H204.064z M261.941,24.631h22.492
		V0.501h-56.308c0,0,0,12.112,0,24.13c7.533,7.533,11.461,11.139,22.356,22.034c-6.369,0-22.356,0.022-22.356,0.021v22.014h56.308
		V46.682L261.941,24.631z M341.746,24.631h22.49V0.501H307.93c0,0,0,12.112,0,24.13c7.531,7.533,11.461,11.139,22.355,22.034
		c-6.365,0-22.355,0.022-22.355,0.021v22.014h56.307V46.682L341.746,24.631z M438.395,101.112l-34.203,370.486l-148.193,39.9
		l-148.196-39.9L73.605,101.112H438.395z M369.477,176.444H255.865h-115.62l5.529,44.739h110.091h6.184l-6.184,2.574
		l-106.067,44.177l3.518,43.73l102.549,0.333l54.963,0.175l-3.521,58.311l-51.442,14.484v-0.046l-0.422,0.116l-49.684-12.542
		l-3.015-36.195h-0.164h-46.085h-0.162l6.032,69.876l93.5,27.649v-0.05l0.168,0.05l93-27.146L361.1,267.935H255.865h-0.26
		l0.26-0.112l109.086-46.639L369.477,176.444z" fill="#1c1313">
        </path>
    </g>

    <g id="styled">
        <path d="M16.214 6.762l-.075.391c-.116.741-.074.953.244 1.228l.307.254-.318 1.418c-.19.846-.423 1.555-.571 1.788-.127.201-.275.497-.307.656-.053.19-.233.381-.508.55-.243.138-.72.508-1.058.805-.27.243-.456.392-.557.456l-.33.261c-.106.17-.166.307-.189.411-.023.107-.01.178.024.23.033.05.09.085.168.107a.954.954 0 00.282.023 3 3 0 00.632-.112c.07-.019.125-.037.173-.053.074-.091.245-.263.548-.562.804-.793 1.111-1.227.794-1.11-.117.042-.064-.064.137-.276.424-.413.667-1.037 1.175-2.994.402-1.545.402-1.567.698-1.567.139 0 .532.024.532.024V6.762h-.902zm3.839 3.165c-.064 0-.17.096-.233.202-.116.19.021.306 1.767 1.396 1.037.657 1.873 1.217 1.852 1.26-.021.031-.868.582-1.883 1.217-1.842 1.142-1.852 1.153-1.683 1.386.212.275 0 .37 2.391-1.122L24 13.155v-.836l-1.937-1.196c-1.047-.656-1.957-1.185-2.01-1.196zm-16.085.117c-.053 0-.963.54-2.01 1.185L0 12.425v.836l1.947 1.217c1.08.666 1.99 1.217 2.032 1.217.042 0 .127-.096.212-.212.127-.201.02-.286-1.768-1.418C.72 12.996.54 12.848.71 12.732c.106-.074.91-.572 1.778-1.111 1.979-1.217 1.873-1.133 1.714-1.387-.063-.105-.17-.2-.233-.19zm8.684.023c-.292-.002-.92.443-2.8 1.978-.081.193-.088.326-.051.412.024.059.068.1.129.13.06.03.138.048.224.055.171.015.373-.012.536-.044l.11-.025a.386.386 0 01.144-.118c.116-.064.603-.508 1.09-.984.857-.868 1.058-1.26.709-1.387a.24.24 0 00-.09-.017zm2.196.603c-.257.007-.72.305-1.513.938-.398.323-.65.497-.785.533l-.524.414c-.197.36-.226.583-.174.706a.25.25 0 00.138.134.644.644 0 00.24.045 2.18 2.18 0 00.58-.085 3.466 3.466 0 00.291-.092l.029-.012.053-.028c.1-.129.33-.372.618-.652.91-.878 1.375-1.502 1.28-1.735-.043-.113-.117-.17-.233-.166zm-2.424 1.08c-.074.008-.24.136-.539.398-.432.382-.903.602-1.066.504a3.97 3.97 0 01-.114.024c-.166.033-.373.06-.558.045a.708.708 0 01-.252-.063.337.337 0 01-.168-.17c-.037-.09-.037-.202.005-.345l-.65.534-1.471 1.217V15.867l4.82-3.797a.41.41 0 01.016-.123c.037-.134.035-.202-.023-.196zm2.074.639c-.073 0-.195.103-.39.31-.265.283-.682.557-.903.613l-.034.018a2.191 2.191 0 01-.11.042c-.06.02-.138.044-.228.068-.18.049-.404.094-.604.089a.732.732 0 01-.275-.054.344.344 0 01-.184-.18c-.058-.139-.035-.334.092-.611L7.61 16.033v1.205h1.868l3.962-3.112c.103-.114.258-.27.467-.465.56-.519.687-.698.687-.963 0-.206-.023-.31-.096-.31zm.943 1.95l-.339.338c-.19.18-.529.402-.761.497l-.046.02-.003.005-.01.01c-.009.007-.013.008-.02.011a3.432 3.432 0 01-.282.093 3.058 3.058 0 01-.65.115 1.035 1.035 0 01-.31-.027.364.364 0 01-.218-.144c-.048-.074-.062-.173-.035-.295a1.11 1.11 0 01.095-.25l-3.197 2.526h4.252l.508-.582c.698-.814 1.016-1.396 1.016-1.894z" fill="#1c1313"/>
    </g>

    <g id="material">
        <path id="Vector" d="M0 26.1816V0L22.5 13.0908V21.818L7.5 13.0908V30.5452L0 26.1816Z" fill="#959596"/>
        <path id="Vector_2"
              d="M22.5 13.0908L45 0V26.1816L30 34.9088L22.5 30.5452L37.5 21.818V13.0908L22.5 21.818V13.0908Z"
              fill="#959596"/>
        <path id="Vector_3" d="M22.5 30.5459V39.2731L37.5 48.0003V39.2731L22.5 30.5459Z" fill="#959596"/>
        <path id="Vector_4"
              d="M37.5 47.9996L60 34.9088V17.4544L52.5 21.818V30.5452L37.5 39.2724V47.9996ZM52.5 13.0908V4.3636L60 0V8.7272L52.5 13.0908Z"
              fill="#959596"/>
    </g>

    <g id="radix">
        <path d="M23.0397 48C18.966 48 15.0591 46.3817 12.1785 43.5012C9.29797 40.6206 7.67969 36.7137 7.67969 32.64C7.67969 28.5663 9.29797 24.6594 12.1785 21.7788C15.0591 18.8983 18.966 17.28 23.0397 17.28V48ZM23.0397 0H7.67969V15.36H23.0397V0ZM32.6397 15.36C34.6765 15.36 36.63 14.5509 38.0703 13.1106C39.5105 11.6703 40.3197 9.71686 40.3197 7.68C40.3197 5.64314 39.5105 3.6897 38.0703 2.24942C36.63 0.809141 34.6765 0 32.6397 0C30.6028 0 28.6494 0.809141 27.2091 2.24942C25.7688 3.6897 24.9597 5.64314 24.9597 7.68C24.9597 9.71686 25.7688 11.6703 27.2091 13.1106C28.6494 14.5509 30.6028 15.36 32.6397 15.36Z"
              fill="#1c1313"/>
    </g>

    <g id="figma">
        <path d="M11.9999 8.66667H8.66658M11.9999 8.66667V2H8.66659C6.82564 2 5.33325 3.49238 5.33325 5.33333C5.33325 7.17428 6.82563 8.66667 8.66658 8.66667M11.9999 8.66667V15.3333H8.66658M11.9999 8.66667L15.3333 8.66667M8.66658 8.66667C6.82563 8.66667 5.33325 10.1591 5.33325 12C5.33325 13.8409 6.82563 15.3333 8.66658 15.3333M8.66658 15.3333C6.82564 15.3333 5.33325 16.8257 5.33325 18.6667C5.33325 20.5076 6.82564 22 8.66659 22C10.5075 22 11.9999 20.5076 11.9999 18.6667M15.3333 8.66667C13.4923 8.66667 11.9999 10.1591 11.9999 12C11.9999 13.8409 13.4923 15.3333 15.3333 15.3333C17.1742 15.3333 18.6666 13.8409 18.6666 12C18.6666 10.1591 17.1742 8.66667 15.3333 8.66667ZM15.3333 8.66667C17.1742 8.66667 18.6666 7.17428 18.6666 5.33333C18.6666 3.49238 17.1742 2 15.3333 2" fill="#1c1313"
              stroke="#1C274C" stroke-width="1.5" stroke-linecap="round" stroke-linejoin="round"/>
    </g>

    <g id="story-book">
        <path d="M16.34.24l-.12 2.71a.18.18 0 0 0 .29.15l1.06-.8.9.7a.18.18 0 0 0 .28-.14L18.65.1l1.33-.1a1.2 1.2 0 0 1 1.28 1.2v21.6A1.2 1.2 0 0 1 20 24l-16.1-.72a1.2 1.2 0 0 1-1.15-1.16L2 2.32a1.2 1.2 0 0 1 1.13-1.27l13.2-.83.01.02zM13.27 9.3c0 .47 3.16.24 3.59-.08 0-3.2-1.72-4.89-4.86-4.89-3.15 0-4.9 1.72-4.9 4.29 0 4.45 6 4.53 6 6.96 0 .7-.32 1.1-1.05 1.1-.96 0-1.35-.49-1.3-2.16 0-.36-3.65-.48-3.77 0-.27 4.03 2.23 5.2 5.1 5.2 2.79 0 4.97-1.49 4.97-4.18 0-4.77-6.1-4.64-6.1-7 0-.97.72-1.1 1.13-1.1.45 0 1.25.07 1.19 1.87z" fill="#1c1313"/>
    </g>

    <g id="react-router-don">
        <path d="M12.118 5.466a2.306 2.306 0 00-.623.08c-.278.067-.702.332-.953.583-.41.423-.49.609-.662 1.469-.08.423.41 1.43.847 1.734.45.317 1.085.502 2.065.608 1.429.16 1.84.636 1.84 2.197 0 1.377-.385 1.747-1.96 1.906-1.707.172-2.58.834-2.765 2.117-.106.781.41 1.76 1.125 2.091 1.627.768 3.15-.198 3.467-2.196.211-1.284.622-1.642 1.998-1.747 1.588-.133 2.409-.675 2.713-1.787.278-1.02-.304-2.157-1.297-2.554-.264-.106-.873-.238-1.35-.291-1.495-.16-1.879-.424-2.038-1.39-.225-1.337-.317-1.562-.794-2.09a2.174 2.174 0 00-1.613-.73zm-4.785 4.36a2.145 2.145 0 00-.497.048c-1.469.318-2.17 2.051-1.35 3.295 1.178 1.774 3.944.953 3.97-1.177.012-1.193-.98-2.143-2.123-2.166zM2.089 14.19a2.22 2.22 0 00-.427.052c-2.158.476-2.237 3.626-.106 4.182.53.145.582.145 1.111.013 1.191-.318 1.866-1.456 1.549-2.607-.278-1.02-1.144-1.664-2.127-1.64zm19.824.008c-.233.002-.477.058-.784.162-1.39.477-1.866 2.092-.98 3.336.557.794 1.96 1.058 2.82.516 1.416-.874 1.363-3.057-.093-3.746-.38-.186-.663-.271-.963-.268z" fill="#1c1313"/>
    </g>

    <g id="react-hook">
        <rect x="1.5" y="1.5" width="45" height="45" rx="8.5" fill="#959596" stroke="#181818" stroke-width="3"/>
        <mask id="path-2-inside-1_69_3937" fill="white">
            <path fill-rule="evenodd" clip-rule="evenodd"
                  d="M26.5151 11.5556H30.6668C32.876 11.5556 34.6668 13.3465 34.6668 15.5556V32.4445C34.6668 34.6536 32.876 36.4445 30.6668 36.4445H17.3335C15.1244 36.4445 13.3335 34.6536 13.3335 32.4445V15.5556C13.3335 13.3465 15.1244 11.5556 17.3335 11.5556H21.4852C21.8513 10.5199 22.8391 9.77783 24.0002 9.77783C25.1612 9.77783 26.149 10.5199 26.5151 11.5556Z" fill="#1c1313"/>
        </mask>
        <path d="M26.5151 11.5556L26.0437 11.7222L26.1615 12.0556H26.5151V11.5556ZM21.4852 11.5556V12.0556H21.8388L21.9567 11.7222L21.4852 11.5556ZM26.5151 12.0556H30.6668V11.0556H26.5151V12.0556ZM30.6668 12.0556C32.5998 12.0556 34.1668 13.6226 34.1668 15.5556H35.1668C35.1668 13.0703 33.1521 11.0556 30.6668 11.0556V12.0556ZM34.1668 15.5556V32.4445H35.1668V15.5556H34.1668ZM34.1668 32.4445C34.1668 34.3775 32.5998 35.9445 30.6668 35.9445V36.9445C33.1521 36.9445 35.1668 34.9298 35.1668 32.4445H34.1668ZM30.6668 35.9445H17.3335V36.9445H30.6668V35.9445ZM17.3335 35.9445C15.4005 35.9445 13.8335 34.3775 13.8335 32.4445H12.8335C12.8335 34.9298 14.8482 36.9445 17.3335 36.9445V35.9445ZM13.8335 32.4445V15.5556H12.8335V32.4445H13.8335ZM13.8335 15.5556C13.8335 13.6226 15.4005 12.0556 17.3335 12.0556V11.0556C14.8482 11.0556 12.8335 13.0703 12.8335 15.5556H13.8335ZM17.3335 12.0556H21.4852V11.0556H17.3335V12.0556ZM21.9567 11.7222C22.2543 10.88 23.0576 10.2778 24.0002 10.2778V9.27783C22.6206 9.27783 21.4483 10.1597 21.0138 11.389L21.9567 11.7222ZM24.0002 10.2778C24.9428 10.2778 25.746 10.88 26.0437 11.7222L26.9865 11.389C26.552 10.1597 25.3797 9.27783 24.0002 9.27783V10.2778Z"
              fill="#1c1313" mask="url(#path-2-inside-1_69_3937)"/>
        <path d="M21.3334 11.7778H19.5557V14.2223C19.5557 15.3268 20.4511 16.2223 21.5557 16.2223H26.4446C27.5491 16.2223 28.4446 15.3268 28.4446 14.2223V11.7778H26.6668" fill="#1c1313"
              stroke="#181818" stroke-width="0.5"/>
        <rect x="16.8887" y="22.2222" width="6.22222" height="0.444445" rx="0.222222" fill="#181818"/>
        <rect x="16.8887" y="27.5557" width="6.22222" height="0.444445" rx="0.222222" fill="#181818"/>
        <rect x="24.8887" y="22.2222" width="6.22222" height="0.444445" rx="0.222222" fill="#181818"/>
        <rect x="24.8887" y="27.5557" width="6.22222" height="0.444445" rx="0.222222" fill="#181818"/>
    </g>

    <g id="formik">
        <path id="Vector" d="M22.6722 0L28.3269 3.18546L6.05804 15.7305L0.40332 12.545L22.6722 0Z" fill="#959596"/>
        <path id="Vector_2" d="M28.5554 3.854L6.42654 16.3145L6.42578 22.6184L28.5547 10.158L28.5554 3.854Z"
              fill="#959596"/>
        <path id="Vector_3" d="M19.6563 16.1582L6.47262 23.5816L6.47192 29.8861L19.6556 22.4627L19.6563 16.1582Z"
              fill="#959596"/>
        <path id="Vector_4" d="M14.6032 26.125L6.44253 30.7205L6.44177 37.025L14.603 32.4295L14.6032 26.125Z"
              fill="#959596"/>
        <path id="Vector_5" d="M0.00218746 13.1509L5.69016 16.3535L5.68797 22.6592L0 19.4566L0.00218746 13.1509Z"
              fill="#959596"/>
        <path id="Vector_6" d="M0.0565146 20.376L5.67548 23.5398L5.67328 29.8454L0.0543213 26.6817L0.0565146 20.376Z"
              fill="#959596"/>
        <path id="Vector_7" d="M0.0536087 27.5552L5.67444 30.7201L5.6721 37.4417L0.0512695 34.2768L0.0536087 27.5552Z"
              fill="#959596"/>
        <path id="Vector_8" d="M12.5789 48.0003L6.92419 44.8148L28.9405 32.4126L34.5952 35.5981L12.5789 48.0003Z"
              fill="#959596"/>
        <path id="Vector_9" d="M6.47595 44.2675L28.5716 31.8259L28.5723 25.522L6.47665 37.9636L6.47595 44.2675Z"
              fill="#959596"/>
        <path id="Vector_10" d="M15.3406 31.9847L28.5242 24.5614L28.525 18.2568L15.3413 25.6802L15.3406 31.9847Z"
              fill="#959596"/>
        <path id="Vector_11" d="M20.3959 22.0181L28.5565 17.4227L28.5572 11.1182L20.3966 15.7136L20.3959 22.0181Z"
              fill="#959596"/>
        <path id="Vector_12" d="M34.9977 35.0307L29.3098 31.8281L29.312 25.5225L34.9999 28.7251L34.9977 35.0307Z"
              fill="#959596"/>
        <path id="Vector_13" d="M34.9429 27.7693L29.324 24.6055L29.3261 18.2998L34.9451 21.4636L34.9429 27.7693Z"
              fill="#959596"/>
        <path id="Vector_14" d="M34.9458 20.5897L29.325 17.4248L29.3272 10.8237L34.9481 13.9886L34.9458 20.5897Z"
              fill="#959596"/>
    </g>

    <g id="zod">
        <path d="M28.3919 33.539H18.3769L13.8535 28.0015L26.6717 28.001L26.6722 27.2155H33.9992L28.3919 33.539Z"
              fill="#959596"/>
        <path d="M42.2917 13.1855L14.6576 29.1401L11.0527 24.6304L32.4462 12.2784L32.0533 11.5976L37.7516 8.30768L42.2917 13.1855Z"
              fill="#959596"/>
        <path d="M27.4867 7.60581L6.73682 19.5857L3.50977 15.5572L17.4025 7.53619L27.4867 7.60581Z" fill="#959596"/>
        <g filter="url(#filter0_d_6023_61346)">
            <path d="M37.9539 5.25H10.4308L0.375 15.254L23.2051 42.746L25.0263 40.7025L47.625 15.3479L37.9539 5.25ZM36.9484 7.60539L44.4184 15.4054L23.2683 39.1351L3.56246 15.4054L11.4027 7.60539H36.9484Z"
                  fill="black"/>
        </g>
        <path d="M37.9539 5.25H10.4308L0.375 15.254L23.2051 42.746L25.0263 40.7025L47.625 15.3479L37.9539 5.25ZM36.9484 7.60539L44.4184 15.4054L23.2683 39.1351L3.56246 15.4054L11.4027 7.60539H36.9484Z"
              fill="#959596"/>
    </g>

    <g id="unit">
        <path d="M46.7402812,46.7402812 C45.1089375,48.39975 42.43725,48.39975 40.7777812,46.7402812 L33.1558125,39.1183125 L33.3245625,33.3245625 L39.1183125,33.1558125 L46.7402812,40.7777812 C48.39975,42.4370625 48.39975,45.1089375 46.7402812,46.7402812 Z"
              id="Shape" fill="#47568C">
        </path>
        <path d="M46.7402812,46.7402812 C45.1089375,48.39975 42.43725,48.39975 40.7777812,46.7402812 L33.1558125,39.1183125 L33.3245625,33.3245625 L46.7402812,46.7402812 Z"
              id="Shape" fill="#2C3B73">
        </path>
        <path d="M39.1183125,33.1558125 L33.1558125,39.1183125 L27.0527812,33.0152812 C26.5184062,32.4809062 26.5184062,31.5809062 27.0527812,31.0465312 L31.0464375,27.052875 C31.5808125,26.5185 32.4808125,26.5185 33.0151875,27.052875 L39.1183125,33.1558125 Z"
              id="Shape" fill="#FDBF00">
        </path>
        <path d="M36.1370625,36.1370625 L33.1558125,39.1183125 L27.0527812,33.0152812 C26.5184062,32.4809062 26.5184062,31.5809062 27.0527812,31.0465312 L29.04975,29.0495625 L36.1370625,36.1370625 Z"
              id="Shape" fill="#FF9100">
        </path>
        <path d="M31.18725,5.3683125 C24.0434062,-1.8035625 12.51225,-1.77534375 5.3683125,5.3683125 C-1.8035625,12.5121563 -1.77534375,24.0433125 5.3683125,31.1870625 C12.5121562,38.3590313 24.0433125,38.3309063 31.18725,31.1870625 C38.3590312,24.0434063 38.3309062,12.5121563 31.18725,5.3683125 Z"
              id="Shape" fill="#47568C">
        </path>
        <path d="M31.18725,31.1870625 C24.0434062,38.3309063 12.51225,38.3590313 5.3683125,31.1870625 C-1.77534375,24.0434063 -1.8035625,12.5121563 5.3683125,5.3683125 L31.18725,31.1870625 Z"
              id="Shape" fill="#2C3B73">
        </path>
        <path d="M29.2184062,29.2184062 C23.1714375,35.2651875 13.3840312,35.2651875 7.3370625,29.2184062 C1.29028125,23.1714375 1.29028125,13.3840312 7.3370625,7.3370625 C13.3840312,1.29009375 23.1714375,1.29009375 29.2184062,7.3370625 C35.2651875,13.3840312 35.2651875,23.1715312 29.2184062,29.2184062 Z"
              id="Shape" fill="#EDF5FF">
        </path>
        <path d="M29.2184062,29.2184062 C23.1714375,35.2651875 13.3840312,35.2651875 7.3370625,29.2184062 C1.29028125,23.1714375 1.29028125,13.3840312 7.3370625,7.3370625 L29.2184062,29.2184062 Z"
              id="Shape" fill="#D7E9FF">
        </path>
        <path d="M28.1215313,14.3120625 L28.1215313,9.84028125 C28.1215313,9.0526875 27.502875,8.43403125 26.7152813,8.43403125 L21.0902813,8.43403125 C20.3026875,8.43403125 19.6840313,9.0526875 19.6840313,9.84028125 C19.6840313,10.6276875 19.065375,11.2465313 18.2777813,11.2465313 C17.4901875,11.2465313 16.8715313,10.6276875 16.8715313,9.84028125 C16.8715313,9.0526875 16.252875,8.43403125 15.4652813,8.43403125 L9.84028125,8.43403125 C9.44653125,8.43403125 9.10903125,8.60278125 8.82778125,8.82778125 C8.6026875,9.1089375 8.43403125,9.4464375 8.43403125,9.84028125 L8.43403125,14.3120625 C6.8026875,14.8745625 5.62153125,16.4495625 5.62153125,18.2777813 C5.62153125,20.1058125 6.8026875,21.6808125 8.43403125,22.2433125 L8.43403125,26.7152813 C8.43403125,27.5026875 9.0526875,28.1215313 9.84028125,28.1215313 L15.4652813,28.1215313 C16.252875,28.1215313 16.8715313,27.5026875 16.8715313,26.7152813 C16.8715313,25.9276875 17.4901875,25.3090313 18.2777813,25.3090313 C19.065375,25.3090313 19.6840313,25.9276875 19.6840313,26.7152813 C19.6840313,27.5026875 20.3026875,28.1215313 21.0902813,28.1215313 L26.7152813,28.1215313 C27.1090313,28.1215313 27.4465313,27.9527813 27.7277813,27.7277813 C27.952875,27.446625 28.1215313,27.109125 28.1215313,26.7152813 L28.1215313,22.2433125 C29.752875,21.6808125 30.9340313,20.1058125 30.9340313,18.2777813 C30.9340313,16.4495625 29.7527813,14.8745625 28.1215313,14.3120625 Z"
              id="Shape" fill="#979FEF">
        </path>
        <path d="M8.82778125,8.82778125 L27.7276875,27.7276875 C27.4465312,27.9527813 27.1090312,28.1214375 26.7151875,28.1214375 L21.0901875,28.1214375 C20.3025937,28.1214375 19.6839375,27.5025938 19.6839375,26.7151875 C19.6839375,25.9275938 19.0652812,25.3089375 18.2776875,25.3089375 C17.4900937,25.3089375 16.8714375,25.9275938 16.8714375,26.7151875 C16.8714375,27.5025938 16.2527812,28.1214375 15.4651875,28.1214375 L9.8401875,28.1214375 C9.05259375,28.1214375 8.4339375,27.5025938 8.4339375,26.7151875 L8.4339375,22.2432188 C6.80259375,21.6807188 5.6214375,20.1057188 5.6214375,18.2776875 C5.6214375,16.4494688 6.80259375,14.8744688 8.4339375,14.3119688 L8.4339375,9.8401875 C8.43403125,9.44653125 8.60278125,9.10903125 8.82778125,8.82778125 Z"
              id="Shape" fill="#737EE6">
        </path>
    </g>

    <g id="git">
        <path fill-rule="evenodd" clip-rule="evenodd" d="M13.4142 3.82843C12.6332 3.04738 11.3668 3.04738 10.5858 3.82843L9.91421 4.5L11.482 6.06774C11.6472 6.02356 11.8208 6 12 6C13.1046 6 14 6.89543 14 8C14 8.17916 13.9764 8.35282 13.9323 8.51804L15.982 10.5677C16.1472 10.5236 16.3208 10.5 16.5 10.5C17.6046 10.5 18.5 11.3954 18.5 12.5C18.5 13.6046 17.6046 14.5 16.5 14.5C15.3954 14.5 14.5 13.6046 14.5 12.5C14.5 12.3208 14.5236 12.1472 14.5677 11.982L13 10.4142V15.2676C13.5978 15.6134 14 16.2597 14 17C14 18.1046 13.1046 19 12 19C10.8954 19 10 18.1046 10 17C10 16.2597 10.4022 15.6134 11 15.2676V9.73244C10.4022 9.38663 10 8.74028 10 8C10 7.82084 10.0236 7.64718 10.0677 7.48196L8.5 5.91421L3.82843 10.5858C3.04738 11.3668 3.04738 12.6332 3.82843 13.4142L10.5858 20.1716C11.3668 20.9526 12.6332 20.9526 13.4142 20.1716L20.1716 13.4142C20.9526 12.6332 20.9526 11.3668 20.1716 10.5858L13.4142 3.82843ZM9.17157 2.41421C10.7337 0.852115 13.2663 0.852119 14.8284 2.41422L21.5858 9.17157C23.1479 10.7337 23.1479 13.2663 21.5858 14.8284L14.8284 21.5858C13.2663 23.1479 10.7337 23.1479 9.17157 21.5858L2.41421 14.8284C0.852115 13.2663 0.852119 10.7337 2.41422 9.17157L9.17157 2.41421Z" fill="#000000"/>
    </g>

    <g id="github">
        <path d="M12 0a12 12 0 1 0 0 24 12 12 0 0 0 0-24zm3.163 21.783h-.093a.513.513 0 0 1-.382-.14.513.513 0 0 1-.14-.372v-1.406c.006-.467.01-.94.01-1.416a3.693 3.693 0 0 0-.151-1.028 1.832 1.832 0 0 0-.542-.875 8.014 8.014 0 0 0 2.038-.471 4.051 4.051 0 0 0 1.466-.964c.407-.427.71-.943.885-1.506a6.77 6.77 0 0 0 .3-2.13 4.138 4.138 0 0 0-.26-1.476 3.892 3.892 0 0 0-.795-1.284 2.81 2.81 0 0 0 .162-.582c.033-.2.05-.402.05-.604 0-.26-.03-.52-.09-.773a5.309 5.309 0 0 0-.221-.763.293.293 0 0 0-.111-.02h-.11c-.23.002-.456.04-.674.111a5.34 5.34 0 0 0-.703.26 6.503 6.503 0 0 0-.661.343c-.215.127-.405.249-.573.362a9.578 9.578 0 0 0-5.143 0 13.507 13.507 0 0 0-.572-.362 6.022 6.022 0 0 0-.672-.342 4.516 4.516 0 0 0-.705-.261 2.203 2.203 0 0 0-.662-.111h-.11a.29.29 0 0 0-.11.02 5.844 5.844 0 0 0-.23.763c-.054.254-.08.513-.081.773 0 .202.017.404.051.604.033.199.086.394.16.582A3.888 3.888 0 0 0 5.702 10a4.142 4.142 0 0 0-.263 1.476 6.871 6.871 0 0 0 .292 2.12c.181.563.483 1.08.884 1.516.415.422.915.75 1.466.964.653.25 1.337.41 2.033.476a1.828 1.828 0 0 0-.452.633 2.99 2.99 0 0 0-.2.744 2.754 2.754 0 0 1-1.175.27 1.788 1.788 0 0 1-1.065-.3 2.904 2.904 0 0 1-.752-.824 3.1 3.1 0 0 0-.292-.382 2.693 2.693 0 0 0-.372-.343 1.841 1.841 0 0 0-.432-.24 1.2 1.2 0 0 0-.481-.101c-.04.001-.08.005-.12.01a.649.649 0 0 0-.162.02.408.408 0 0 0-.13.06.116.116 0 0 0-.06.1.33.33 0 0 0 .14.242c.093.074.17.131.232.171l.03.021c.133.103.261.214.382.333.112.098.213.209.3.33.09.119.168.246.231.381.073.134.15.288.231.463.188.474.522.875.954 1.145.453.243.961.364 1.476.351.174 0 .349-.01.522-.03.172-.028.343-.057.515-.091v1.743a.5.5 0 0 1-.533.521h-.062a10.286 10.286 0 1 1 6.324 0v.005z"/>
    </g>

    <g id="eslint">
        <path d="M0.5 7.5L0.0527864 7.27639C-0.0175955 7.41716 -0.0175955 7.58284 0.0527864 7.72361L0.5 7.5ZM3.5 1.5V1C3.31061 1 3.13748 1.107 3.05279 1.27639L3.5 1.5ZM11.5 1.5L11.9472 1.27639C11.8625 1.107 11.6894 1 11.5 1V1.5ZM14.5 7.5L14.9472 7.72361C15.0176 7.58284 15.0176 7.41716 14.9472 7.27639L14.5 7.5ZM11.5 13.5V14C11.6894 14 11.8625 13.893 11.9472 13.7236L11.5 13.5ZM3.5 13.5L3.05279 13.7236C3.13748 13.893 3.31061 14 3.5 14V13.5ZM7.5 4L7.77735 3.58397L7.5 3.39907L7.22265 3.58397L7.5 4ZM4.5 6L4.22265 5.58397L4 5.73241V6H4.5ZM4.5 9H4V9.26759L4.22265 9.41603L4.5 9ZM7.5 11L7.22265 11.416L7.5 11.6009L7.77735 11.416L7.5 11ZM10.5 9L10.7774 9.41603L11 9.26759V9H10.5ZM10.5 6H11V5.73241L10.7774 5.58397L10.5 6ZM0.947214 7.72361L3.94721 1.72361L3.05279 1.27639L0.0527864 7.27639L0.947214 7.72361ZM3.5 2H11.5V1H3.5V2ZM11.0528 1.72361L14.0528 7.72361L14.9472 7.27639L11.9472 1.27639L11.0528 1.72361ZM14.0528 7.27639L11.0528 13.2764L11.9472 13.7236L14.9472 7.72361L14.0528 7.27639ZM11.5 13H3.5V14H11.5V13ZM3.94721 13.2764L0.947214 7.27639L0.0527864 7.72361L3.05279 13.7236L3.94721 13.2764ZM7.22265 3.58397L4.22265 5.58397L4.77735 6.41603L7.77735 4.41603L7.22265 3.58397ZM4 6V9H5V6H4ZM4.22265 9.41603L7.22265 11.416L7.77735 10.584L4.77735 8.58397L4.22265 9.41603ZM7.77735 11.416L10.7774 9.41603L10.2226 8.58397L7.22265 10.584L7.77735 11.416ZM11 9V6H10V9H11ZM10.7774 5.58397L7.77735 3.58397L7.22265 4.41603L10.2226 6.41603L10.7774 5.58397Z" fill="#000000"/>
    </g>

    <g id="prettier">
        <path d="M11.427 31.24c0 0.422-0.339 0.76-0.76 0.76h-7.62c-1.016 0-1.016-1.526 0-1.526h7.62c0.422 0 0.76 0.344 0.76 0.766zM10.667 27.427h-1.526c-1.016 0-1.016 1.526 0 1.526h1.526c1.016 0 1.016-1.526 0-1.526zM3.047 28.953h3.047c1.016 0 1.016-1.526 0-1.526h-3.047c-1.016 0-1.016 1.526 0 1.526zM10.667 24.38h-7.62c-1.016 0-1.016 1.526 0 1.526h7.62c1.016 0 1.016-1.526 0-1.526zM21.333 21.333h-13.714c-1.016 0-1.016 1.526 0 1.526h13.714c1.016 0 1.016-1.526 0-1.526zM3.047 22.859h1.526c1.016 0 1.016-1.526 0-1.526h-1.526c-1.016 0-1.016 1.526 0 1.526zM25.906 18.286h-4.573c-1.016 0-1.016 1.521 0 1.521h4.573c1.016 0 1.016-1.521 0-1.521zM12.193 19.807h6.094c1.016 0 1.016-1.521 0-1.521h-6.094c-1.016 0-1.016 1.521 0 1.521zM3.047 19.807h6.094c1.016 0 1.016-1.521 0-1.521h-6.094c-1.016 0-1.016 1.521 0 1.521zM27.427 15.24h-12.188c-1.016 0-1.016 1.521 0 1.521h12.188c1.016 0 1.016-1.521 0-1.521zM12.953 16c0-0.422-0.344-0.76-0.76-0.76h-4.573c-1.016 0-1.016 1.521 0 1.521h4.573c0.417 0 0.76-0.339 0.76-0.76zM3.047 16.76h1.526c1.016 0 1.016-1.521 0-1.521h-1.526c-1.016 0-1.016 1.521 0 1.521zM28.953 12.193h-7.62c-1.016 0-1.016 1.521 0 1.521h7.62c1.016 0 1.016-1.521 0-1.521zM3.047 13.714h7.62c1.016 0 1.016-1.521 0-1.521h-7.62c-1.016 0-1.016 1.521 0 1.521zM20.573 9.906c0 0.417 0.339 0.76 0.76 0.76h7.62c1.016 0 1.016-1.526 0-1.526h-7.62c-0.422 0-0.76 0.344-0.76 0.766zM9.141 9.141c-1.016 0-1.016 1.526 0 1.526h1.526c1.016 0 1.016-1.526 0-1.526zM3.047 10.667h3.047c1.016 0 1.016-1.526 0-1.526h-3.047c-1.016 0-1.016 1.526 0 1.526zM25.141 6.859c0 0.417 0.344 0.76 0.766 0.76h1.521c1.016 0 1.016-1.526 0-1.526h-1.521c-0.422 0-0.76 0.344-0.76 0.766zM23.62 6.859c0-0.422-0.344-0.766-0.76-0.766h-6.099c-1.016 0-1.016 1.526 0 1.526h6.094c0.422 0 0.766-0.344 0.766-0.76zM3.047 7.62h10.667c1.016 0 1.016-1.526 0-1.526h-10.667c-1.016 0-1.016 1.526 0 1.526zM9.906 3.807c0 0.422 0.339 0.766 0.76 0.766h15.24c1.016 0 1.016-1.526 0-1.526h-15.24c-0.422 0-0.76 0.344-0.76 0.76zM3.047 4.573h4.573c1.016 0 1.016-1.526 0-1.526h-4.573c-1.016 0-1.016 1.526 0 1.526zM3.047 1.526h18.286c1.016 0 1.016-1.526 0-1.526h-18.286c-1.016 0-1.016 1.526 0 1.526z"/>
    </g>

    <g id="redux-saga">
        <path d="M130.005279,96.2274864 C130.005279,101.498402 126.084419,105.850729 121.000757,106.534269 C114.974281,120.582842 102.699049,134.289318 85.881289,143.998985 C71.7662609,152.1481 56.808266,156.124612 43.3911816,156.124612 C26.3275703,156.124612 11.7548849,149.695476 4.56495141,137.242157 C-7.11185678,117.017502 4.26573913,88.7979212 31.232491,69.7288675 C31.2334731,74.0847959 31.5742609,78.0789852 32.3373504,81.6230465 C30.1613504,83.4576041 28.183734,85.0286322 26.253913,87.0520798 C21.2881023,92.2578496 17.3181381,97.6515274 14.6019847,103.410873 C9.53567263,114.152724 9.19324808,124.306954 13.6372379,132.004305 C18.6436419,140.675568 29.4886138,145.648908 43.3911816,145.648908 C55.4375857,145.648908 68.6674169,141.84099 80.6434373,134.926699 C87.6169821,130.900755 93.8176164,126.065563 99.0738005,120.555016 C104.039611,115.348919 107.934609,109.788939 110.65109,104.029594 C110.887775,103.527742 111.111038,103.027855 111.326118,102.529277 C109.99243,100.780162 109.198568,98.5969596 109.198568,96.2274864 C109.198568,90.4818905 113.856327,85.8244583 119.601923,85.8244583 C125.347519,85.8244583 130.005279,90.4818905 130.005279,96.2274864 Z M83.5778455,-0.000130946292 C106.805099,-0.000130946292 126.055513,24.5434598 129.528863,56.6203908 C125.905907,54.4430813 122.11272,52.6284931 118.140792,51.1949586 C117.667421,48.7158179 117.080454,46.2808716 116.380874,43.896667 C114.355135,36.9931785 111.487738,30.8400123 107.857907,25.6077258 C101.088638,15.8496082 92.4654977,10.4755724 83.5778455,10.4755724 C74.6901934,10.4755724 66.0670527,15.8496082 59.2977841,25.6077258 C55.6679529,30.8400123 52.8005565,36.9931785 50.7748174,43.896667 C48.6308992,51.2037974 47.5437176,58.9915008 47.5437176,67.0437156 C47.5437176,75.0959304 48.6308992,82.8836338 50.7748174,90.1904368 C52.8005565,97.0939253 55.6679529,103.247092 59.2977841,108.479705 C59.6739274,109.021496 60.0559632,109.549209 60.4432368,110.063828 C61.0632675,109.948595 61.7016307,109.885741 62.3547253,109.885741 C68.1006486,109.885741 72.7580808,114.543501 72.7580808,120.288769 C72.7580808,126.034365 68.1006486,130.692125 62.3547253,130.692125 C56.6094568,130.692125 51.9516972,126.034365 51.9516972,120.288769 C51.9516972,119.112544 52.1497535,117.982805 52.5098558,116.92836 C43.0319632,104.654764 37.0680143,86.8549074 37.0680143,67.0437156 C37.0680143,30.0163601 57.8910936,-0.000130946292 83.5778455,-0.000130946292 Z M123.664958,145.646944 C136.422073,145.646944 146.604784,141.459282 152.063935,134.069328 C155.238073,135.74675 158.766093,136.767149 162.490206,137.284714 C155.259024,149.599558 140.630686,156.122648 123.664958,156.122648 C113.173541,156.122648 101.743239,153.692284 90.5080471,148.736622 C94.8800164,146.3223 98.7534077,143.989164 101.622441,141.819712 C109.048405,144.323077 116.562103,145.646944 123.664958,145.646944 Z M140.876767,86.8835192 C135.620583,81.3729719 129.419949,76.5377801 122.446731,72.5118363 C110.470711,65.5972174 97.2418619,61.7892992 85.1977494,61.7892992 L85.1961125,61.7892992 C82.5640921,61.7896266 80.0414118,61.9680409 77.6473862,62.3157033 C77.5864962,62.3245422 77.5275703,62.336 77.4670077,62.3451662 C76.3794987,66.9282864 72.2628747,70.3387826 67.3471509,70.3387826 C61.601555,70.3387826 56.9441228,65.681023 56.9441228,59.9357545 C56.9441228,54.1901586 61.601555,49.532399 67.3471509,49.532399 C70.0449719,49.532399 72.5025064,50.5593453 74.3511407,52.2436419 C74.3652174,52.241023 74.3789668,52.2377494 74.3933708,52.2351304 C77.8398772,51.6226292 81.4575959,51.3139233 85.1941483,51.3135959 C98.6125422,51.3129412 113.567263,55.288798 127.684256,63.4395499 C150.910199,76.8491049 165.489105,97.8800614 166.882046,116.910159 C162.663611,116.435478 159.094343,115.035662 155.812829,113.225657 C155.153187,110.048246 154.032941,106.757238 152.454056,103.408941 C149.737575,97.6492685 145.842578,92.089289 140.876767,86.8835192 Z" fill="#999999">
        </path>
        <path d="M247.009097,71.0820338 C251.617751,78.0221872 242.233485,83.4508931 238.030764,76.4724379 C235.4688,72.0994864 231.539102,68.009379 226.388002,64.4358547 C221.155716,60.8060235 215.002222,57.9386271 208.099061,55.9132153 C200.79193,53.7689698 193.004227,52.6817882 184.95234,52.6817882 C176.900125,52.6817882 169.112421,53.7689698 161.805291,55.9132153 C160.547879,56.2821565 159.318294,56.6821974 158.111624,57.1067908 C157.962345,62.7217678 153.366785,67.2286118 147.71547,67.2286118 C141.970202,67.2286118 137.312115,62.5711795 137.312115,56.8255836 C137.312115,51.0799877 141.970202,46.4222281 147.71547,46.4222281 C149.627286,46.4222281 151.416994,46.9404481 152.956268,47.8400491 C162.466242,44.2501565 173.36392,42.2060849 184.95234,42.2060849 C212.982375,42.2060849 236.994652,54.1395478 247.009097,71.0820338 Z M255.755589,96.2274864 C255.755589,101.444059 251.915916,105.762668 246.909512,106.5143 C236.836796,123.369379 212.891302,135.225911 184.952274,135.225911 C163.13433,135.225911 143.750678,127.996039 131.507855,116.801768 C125.585809,110.848622 132.714197,103.931712 138.237512,108.763957 C139.819671,110.239394 141.581553,111.654269 143.516284,112.996141 C148.748571,116.625972 154.901737,119.493369 161.805226,121.519108 C169.112356,123.663026 176.900059,124.750208 184.952274,124.750208 C193.004162,124.750208 200.792192,123.663026 208.098995,121.519108 C215.002484,119.493369 221.155977,116.625972 226.387937,112.996141 C230.927517,109.846883 234.514791,106.295947 237.057113,102.504397 C235.734883,100.759538 234.948878,98.5858292 234.948878,96.2274864 C234.948878,90.4818905 239.606637,85.8244583 245.352561,85.8244583 C251.097829,85.8244583 255.755589,90.4818905 255.755589,96.2274864 Z" fill="#89D96D">
        </path>
    </g>

    <g id="websocket">
        <path d="m 10.020625,9.2762675 1.489688,0 0,-3.5768554 -1.6783598,-1.6783203 -1.0533752,1.0534179 1.242047,1.2420899 0,2.9596679 z m 1.493625,0.7470705 -5.1961876,0 -1.2420937,-1.241992 0.5267343,-0.5263672 1.0258594,1.0258789 2.1106875,0 -2.0792344,-2.0832031 0.530625,-0.5302734 2.0792343,2.0792968 0,-2.1107421 -1.0219218,-1.0219726 0.52275,-0.522461 -2.5823437,-2.5941406 -5.18835931,0 1.48575001,1.4857422 0,0.00391 3.0815624,0 1.0887656,1.0887695 -1.591875,1.5918945 -1.0887656,-1.0887695 0,-0.8447266 -1.4896874,0 0,1.462207 2.578453,2.5784179 -1.0494843,1.0495113 1.6783593,1.67832 7.306922,0 -1.48575,-1.477929 z"/>
    </g>

    <g id="node-js">
        <path d="M42.3,11.8,25.7,2.4a4,4,0,0,0-3.4,0L5.7,11.8A3.4,3.4,0,0,0,4,14.7V33.3a3.4,3.4,0,0,0,1.7,2.9l4.4,2.5a7.2,7.2,0,0,0,3.8,1c3.1,0,4.9-1.9,4.9-5.1V16.3a.5.5,0,0,0-.5-.5H16.2a.5.5,0,0,0-.5.5V34.6c0,1.5-1.5,2.9-3.9,1.7L7.2,33.7a.5.5,0,0,1-.2-.4V14.7a.8.8,0,0,1,.2-.5L23.7,4.9h.6l16.5,9.3a.8.8,0,0,1,.2.5V33.3a.5.5,0,0,1-.2.4L24.3,43a.6.6,0,0,1-.6,0l-4.2-2.4a.3.3,0,0,0-.4,0l-2.5,1.1c-.3.1-.7.2.1.7l5.6,3.1a3.1,3.1,0,0,0,3.4,0l16.6-9.3A3.4,3.4,0,0,0,44,33.3V14.7A3.4,3.4,0,0,0,42.3,11.8Z"/>
        <path d="M29.1,30.3c-4.4,0-5.3-1-5.7-3.1a.4.4,0,0,0-.4-.4H20.8a.4.4,0,0,0-.4.4c0,2.7,1.5,6,8.7,6,5.2,0,8.2-2,8.2-5.5s-2.4-4.5-7.5-5.1-5.6-1-5.6-2.2.4-2.2,4.2-2.2,4.7.7,5.2,2.9a.5.5,0,0,0,.5.4h2.1l.4-.2a.4.4,0,0,0,.1-.3c-.3-3.9-3-5.7-8.3-5.7s-7.5,2-7.5,5.2,2.8,4.5,7.3,5,5.9,1.2,5.9,2.3S32.6,30.3,29.1,30.3Z"/>
    </g>

    <g id="native">
        <path fill-rule="nonzero" clip-rule="nonzero" d="M4.84989 2.37195C4.59895 2.51683 4.33488 2.91636 4.30424 3.78785C4.28968 4.20181 3.9423 4.52559 3.52835 4.51103C3.11439 4.49647 2.79061 4.1491 2.80516 3.73514C2.84273 2.66673 3.1806 1.60366 4.09989 1.07291C5.02179 0.540653 6.11484 0.782356 7.06128 1.28727C7.42674 1.48224 7.56495 1.93656 7.36998 2.30201C7.17501 2.66747 6.72069 2.80568 6.35524 2.61072C5.5818 2.1981 5.10158 2.22663 4.84989 2.37195ZM8.87139 3.67284C9.19036 3.40858 9.66315 3.45293 9.92741 3.7719C10.4818 4.44103 11.0136 5.20405 11.4963 6.04018C12.5366 7.84191 13.178 9.68785 13.3509 11.2362C13.4372 12.0091 13.4108 12.7446 13.2303 13.3754C13.0484 14.011 12.6941 14.5863 12.0999 14.9293C11.381 15.3444 10.5509 15.2855 9.79114 15.0089C9.02868 14.7313 8.24395 14.2056 7.49586 13.5228C7.18993 13.2435 7.16831 12.7691 7.44756 12.4632C7.72681 12.1573 8.20119 12.1356 8.50712 12.4149C9.16624 13.0165 9.78567 13.4105 10.3043 13.5994C10.8257 13.7892 11.1537 13.7436 11.3499 13.6303C11.5143 13.5354 11.6797 13.342 11.7882 12.9627C11.8981 12.5787 11.9328 12.0529 11.8602 11.4026C11.7152 10.1045 11.1591 8.45607 10.1973 6.79018C9.75492 6.02396 9.27081 5.33055 8.77232 4.72886C8.50807 4.40989 8.55242 3.93709 8.87139 3.67284Z" fill="#000000"/>
        <path fill-rule="nonzero" clip-rule="nonzero" d="M14.5 8.20557C14.5 7.91581 14.286 7.48735 13.5466 7.02507C13.1954 6.80549 13.0887 6.34276 13.3083 5.99154C13.5279 5.64032 13.9906 5.53361 14.3418 5.75319C15.2483 6.31993 16 7.14407 16 8.20557C16 9.27009 15.2442 10.0958 14.3337 10.663C13.9821 10.882 13.5195 10.7746 13.3005 10.423C13.0815 10.0714 13.189 9.60887 13.5405 9.38985C14.2846 8.92635 14.5 8.4962 14.5 8.20557ZM11.3626 11.0378C11.432 11.4462 11.1572 11.8335 10.7488 11.9029C9.89219 12.0484 8.96547 12.1274 8 12.1274C5.91954 12.1274 4.00018 11.76 2.57286 11.1355C1.86032 10.8238 1.23659 10.4332 0.780529 9.9615C0.320977 9.48616 0 8.89166 0 8.20557C0 7.37549 0.466082 6.68599 1.08548 6.16636C1.70712 5.64485 2.55471 5.22808 3.52013 4.92164C3.91494 4.79633 4.33657 5.01479 4.46189 5.40959C4.5872 5.80439 4.36874 6.22603 3.97394 6.35135C3.12334 6.62134 2.4724 6.96078 2.04954 7.31553C1.62442 7.67217 1.5 7.97899 1.5 8.20557C1.5 8.39536 1.58476 8.6353 1.85895 8.91891C2.13663 9.20613 2.57464 9.49905 3.17409 9.76131C4.37076 10.2848 6.07639 10.6274 8 10.6274C8.88475 10.6274 9.72732 10.5549 10.4976 10.424C10.906 10.3547 11.2933 10.6295 11.3626 11.0378Z" fill="#000000"/>
        <path fill-rule="nonzero" clip-rule="nonzero" d="M4.87192 13.6303C5.12286 13.7752 5.6009 13.8041 6.37095 13.3949C6.73673 13.2005 7.19082 13.3395 7.38519 13.7052C7.57957 14.071 7.44062 14.5251 7.07484 14.7195C6.13079 15.2211 5.04121 15.4601 4.12192 14.9293C3.20003 14.3971 2.86282 13.3296 2.82687 12.2575C2.81299 11.8435 3.13733 11.4967 3.55131 11.4828C3.96529 11.4689 4.31215 11.7932 4.32603 12.2072C4.35541 13.0834 4.62023 13.485 4.87192 13.6303ZM3.98778 9.49712C3.59944 9.35301 3.40145 8.92138 3.54556 8.53304C3.84786 7.71839 4.24274 6.8763 4.72548 6.04018C5.76571 4.23845 7.04361 2.75996 8.29806 1.83609C8.92431 1.37487 9.57441 1.02999 10.211 0.870901C10.8524 0.71059 11.5278 0.729863 12.1219 1.07291C12.8408 1.48795 13.2049 2.23634 13.3452 3.03257C13.486 3.83168 13.4232 4.77409 13.2058 5.7634C13.1169 6.16796 12.7169 6.42388 12.3124 6.33501C11.9078 6.24613 11.6519 5.84612 11.7408 5.44155C11.9322 4.56992 11.9637 3.83647 11.868 3.29288C11.7717 2.7464 11.5681 2.48524 11.3719 2.37195C11.2076 2.27705 10.9574 2.23049 10.5747 2.32614C10.1871 2.42301 9.71442 2.65588 9.18757 3.04388C8.13584 3.81846 6.98632 5.12428 6.02452 6.79018C5.58214 7.55639 5.22369 8.32235 4.95185 9.0549C4.80774 9.44323 4.37611 9.64122 3.98778 9.49712Z" fill="#000000"/>
        <path d="M9.45925 8.06618C9.45925 8.81694 8.85063 9.42556 8.09987 9.42556C7.34911 9.42556 6.7405 8.81694 6.7405 8.06618C6.7405 7.31542 7.34911 6.70681 8.09987 6.70681C8.85063 6.70681 9.45925 7.31542 9.45925 8.06618Z" fill="#000000"/>
    </g>

    <g id="angular">
        <path d="M12,2.5l8.84,3.15L19.5,17.35,12,21.5,4.5,17.35,3.16,5.65,12,2.5m0,2L5,7l1.08,9.22L12,19.5l5.92-3.28L19,7,12,4.5m0,1.22L16.58,16H14.87l-.93-2.28H10L9.12,16H7.41L12,5.72m1.34,6.58L12,9.07,10.66,12.3Z"/>
    </g>

<!--    socials-->
    <g id="telegram">
        <path fill-rule="evenodd" clip-rule="evenodd" d="M23.1117 4.49449C23.4296 2.94472 21.9074 1.65683 20.4317 2.227L2.3425 9.21601C0.694517 9.85273 0.621087 12.1572 2.22518 12.8975L6.1645 14.7157L8.03849 21.2746C8.13583 21.6153 8.40618 21.8791 8.74917 21.968C9.09216 22.0568 9.45658 21.9576 9.70712 21.707L12.5938 18.8203L16.6375 21.8531C17.8113 22.7334 19.5019 22.0922 19.7967 20.6549L23.1117 4.49449ZM3.0633 11.0816L21.1525 4.0926L17.8375 20.2531L13.1 16.6999C12.7019 16.4013 12.1448 16.4409 11.7929 16.7928L10.5565 18.0292L10.928 15.9861L18.2071 8.70703C18.5614 8.35278 18.5988 7.79106 18.2947 7.39293C17.9906 6.99479 17.4389 6.88312 17.0039 7.13168L6.95124 12.876L3.0633 11.0816ZM8.17695 14.4791L8.78333 16.6015L9.01614 15.321C9.05253 15.1209 9.14908 14.9366 9.29291 14.7928L11.5128 12.573L8.17695 14.4791Z" fill="#0F0F0F"/>
    </g>
</svg>
